solid systemedu
facet normal 0 0 0
 outer loop
  vertex 3.3145437240600586 0.2218945324420929 0
  vertex 3.299999952316284 -2.0818995170458873e-16 0
  vertex 0 -6 0
 endloop
endfacet
facet normal 0 0 0
 outer loop
  vertex 0 -6 0
  vertex 3.299999952316284 -2.0818995170458873e-16 0
  vertex 3.3145437240600586 -0.2218945324420929 0
 endloop
endfacet
facet normal 0 0 0
 outer loop
  vertex 45 4 0
  vertex 43 -10 0
  vertex 0 -6 0
 endloop
endfacet
facet normal 0 0 0
 outer loop
  vertex 0 6 0
  vertex 6 7 0
  vertex 45 4 0
 endloop
endfacet
facet normal 0 0 0
 outer loop
  vertex 3.3145437240600586 0.2218945324420929 0
  vertex 0 -6 0
  vertex 0 6 0
 endloop
endfacet
facet normal 0 0 0
 outer loop
  vertex 0 -6 0
  vertex 3.3145437240600586 -0.2218945324420929 0
  vertex 3.3579261302948 -0.43999236822128296 0
 endloop
endfacet
facet normal 0 0 0
 outer loop
  vertex 3.3579261302948 0.43999236822128296 0
  vertex 3.3145437240600586 0.2218945324420929 0
  vertex 0 6 0
 endloop
endfacet
facet normal 0 0 0
 outer loop
  vertex 0 -6 0
  vertex 3.3579261302948 -0.43999236822128296 0
  vertex 3.4294047355651855 -0.6505618095397949 0
 endloop
endfacet
facet normal 0 0 0
 outer loop
  vertex 3.4294047355651855 0.6505618095397949 0
  vertex 3.3579261302948 0.43999236822128296 0
  vertex 0 6 0
 endloop
endfacet
facet normal 0 0 0
 outer loop
  vertex 0 -6 0
  vertex 3.4294047355651855 -0.6505618095397949 0
  vertex 3.527756929397583 -0.8500000238418579 0
 endloop
endfacet
facet normal 0 0 0
 outer loop
  vertex 3.527756929397583 0.8500000238418579 0
  vertex 3.4294047355651855 0.6505618095397949 0
  vertex 0 6 0
 endloop
endfacet
facet normal 0 0 0
 outer loop
  vertex 0 -6 0
  vertex 3.527756929397583 -0.8500000238418579 0
  vertex 3.651299238204956 -1.0348944664001465 0
 endloop
endfacet
facet normal 0 0 0
 outer loop
  vertex 3.651299238204956 1.0348944664001465 0
  vertex 3.527756929397583 0.8500000238418579 0
  vertex 0 6 0
 endloop
endfacet
facet normal 0 0 0
 outer loop
  vertex 0 -6 0
  vertex 3.651299238204956 -1.0348944664001465 0
  vertex 3.7979185581207275 -1.202081561088562 0
 endloop
endfacet
facet normal 0 0 0
 outer loop
  vertex 3.7979185581207275 1.202081561088562 0
  vertex 3.651299238204956 1.0348944664001465 0
  vertex 0 6 0
 endloop
endfacet
facet normal 0 0 0
 outer loop
  vertex 0 -6 0
  vertex 3.7979185581207275 -1.202081561088562 0
  vertex 3.9651055335998535 -1.3487006425857544 0
 endloop
endfacet
facet normal 0 0 0
 outer loop
  vertex 3.9651055335998535 1.3487006425857544 0
  vertex 3.7979185581207275 1.202081561088562 0
  vertex 0 6 0
 endloop
endfacet
facet normal 0 0 0
 outer loop
  vertex 0 -6 0
  vertex 3.9651055335998535 -1.3487006425857544 0
  vertex 4.150000095367432 -1.4722431898117065 0
 endloop
endfacet
facet normal 0 0 0
 outer loop
  vertex 4.150000095367432 1.4722431898117065 0
  vertex 3.9651055335998535 1.3487006425857544 0
  vertex 0 6 0
 endloop
endfacet
facet normal 0 0 0
 outer loop
  vertex 0 -6 0
  vertex 4.150000095367432 -1.4722431898117065 0
  vertex 4.349438190460205 -1.5705952644348145 0
 endloop
endfacet
facet normal 0 0 0
 outer loop
  vertex 4.349438190460205 1.5705952644348145 0
  vertex 4.150000095367432 1.4722431898117065 0
  vertex 0 6 0
 endloop
endfacet
facet normal 0 0 0
 outer loop
  vertex 0 -6 0
  vertex 4.349438190460205 -1.5705952644348145 0
  vertex 4.560007572174072 -1.6420738697052002 0
 endloop
endfacet
facet normal 0 0 0
 outer loop
  vertex 4.560007572174072 1.6420738697052002 0
  vertex 4.349438190460205 1.5705952644348145 0
  vertex 0 6 0
 endloop
endfacet
facet normal 0 0 0
 outer loop
  vertex 0 -6 0
  vertex 4.560007572174072 -1.6420738697052002 0
  vertex 4.77810525894165 -1.6854562759399414 0
 endloop
endfacet
facet normal 0 0 0
 outer loop
  vertex 4.77810525894165 1.6854562759399414 0
  vertex 4.560007572174072 1.6420738697052002 0
  vertex 0 6 0
 endloop
endfacet
facet normal 0 0 0
 outer loop
  vertex 0 -6 0
  vertex 4.77810525894165 -1.6854562759399414 0
  vertex 5 -1.7000000476837158 0
 endloop
endfacet
facet normal 0 0 0
 outer loop
  vertex 5 1.7000000476837158 0
  vertex 4.77810525894165 1.6854562759399414 0
  vertex 0 6 0
 endloop
endfacet
facet normal 0 0 0
 outer loop
  vertex 0 -6 0
  vertex 5 -1.7000000476837158 0
  vertex 5.22189474105835 -1.6854562759399414 0
 endloop
endfacet
facet normal 0 0 0
 outer loop
  vertex 5 1.7000000476837158 0
  vertex 0 6 0
  vertex 45 4 0
 endloop
endfacet
facet normal 0 0 0
 outer loop
  vertex 0 -6 0
  vertex 5.22189474105835 -1.6854562759399414 0
  vertex 5.439992427825928 -1.6420738697052002 0
 endloop
endfacet
facet normal 0 0 0
 outer loop
  vertex 5.22189474105835 1.6854562759399414 0
  vertex 5 1.7000000476837158 0
  vertex 45 4 0
 endloop
endfacet
facet normal 0 0 0
 outer loop
  vertex 0 -6 0
  vertex 5.439992427825928 -1.6420738697052002 0
  vertex 5.650561809539795 -1.5705952644348145 0
 endloop
endfacet
facet normal 0 0 0
 outer loop
  vertex 5.439992427825928 1.6420738697052002 0
  vertex 5.22189474105835 1.6854562759399414 0
  vertex 45 4 0
 endloop
endfacet
facet normal 0 0 0
 outer loop
  vertex 0 -6 0
  vertex 5.650561809539795 -1.5705952644348145 0
  vertex 5.849999904632568 -1.4722431898117065 0
 endloop
endfacet
facet normal 0 0 0
 outer loop
  vertex 5.650561809539795 1.5705952644348145 0
  vertex 5.439992427825928 1.6420738697052002 0
  vertex 45 4 0
 endloop
endfacet
facet normal 0 0 0
 outer loop
  vertex 0 -6 0
  vertex 5.849999904632568 -1.4722431898117065 0
  vertex 6.0348944664001465 -1.3487006425857544 0
 endloop
endfacet
facet normal 0 0 0
 outer loop
  vertex 5.849999904632568 1.4722431898117065 0
  vertex 5.650561809539795 1.5705952644348145 0
  vertex 45 4 0
 endloop
endfacet
facet normal 0 0 0
 outer loop
  vertex 45 4 0
  vertex 0 -6 0
  vertex 6.0348944664001465 -1.3487006425857544 0
 endloop
endfacet
facet normal 0 0 0
 outer loop
  vertex 6.0348944664001465 1.3487006425857544 0
  vertex 5.849999904632568 1.4722431898117065 0
  vertex 45 4 0
 endloop
endfacet
facet normal 0 0 0
 outer loop
  vertex 45 4 0
  vertex 6.0348944664001465 -1.3487006425857544 0
  vertex 6.202081680297852 -1.202081561088562 0
 endloop
endfacet
facet normal 0 0 0
 outer loop
  vertex 6.202081680297852 1.202081561088562 0
  vertex 6.0348944664001465 1.3487006425857544 0
  vertex 45 4 0
 endloop
endfacet
facet normal 0 0 0
 outer loop
  vertex 45 4 0
  vertex 6.202081680297852 -1.202081561088562 0
  vertex 6.348700523376465 -1.0348944664001465 0
 endloop
endfacet
facet normal 0 0 0
 outer loop
  vertex 6.348700523376465 1.0348944664001465 0
  vertex 6.202081680297852 1.202081561088562 0
  vertex 45 4 0
 endloop
endfacet
facet normal 0 0 0
 outer loop
  vertex 45 4 0
  vertex 6.348700523376465 -1.0348944664001465 0
  vertex 6.472243309020996 -0.8500000238418579 0
 endloop
endfacet
facet normal 0 0 0
 outer loop
  vertex 6.472243309020996 0.8500000238418579 0
  vertex 6.348700523376465 1.0348944664001465 0
  vertex 45 4 0
 endloop
endfacet
facet normal 0 0 0
 outer loop
  vertex 45 4 0
  vertex 6.472243309020996 -0.8500000238418579 0
  vertex 6.5705952644348145 -0.6505618095397949 0
 endloop
endfacet
facet normal 0 0 0
 outer loop
  vertex 6.5705952644348145 0.6505618095397949 0
  vertex 6.472243309020996 0.8500000238418579 0
  vertex 45 4 0
 endloop
endfacet
facet normal 0 0 0
 outer loop
  vertex 45 4 0
  vertex 6.5705952644348145 -0.6505618095397949 0
  vertex 6.642074108123779 -0.43999236822128296 0
 endloop
endfacet
facet normal 0 0 0
 outer loop
  vertex 6.642074108123779 0.43999236822128296 0
  vertex 6.5705952644348145 0.6505618095397949 0
  vertex 45 4 0
 endloop
endfacet
facet normal 0 0 0
 outer loop
  vertex 45 4 0
  vertex 6.642074108123779 -0.43999236822128296 0
  vertex 6.685456275939941 -0.2218945324420929 0
 endloop
endfacet
facet normal 0 0 0
 outer loop
  vertex 6.685456275939941 0.2218945324420929 0
  vertex 6.642074108123779 0.43999236822128296 0
  vertex 45 4 0
 endloop
endfacet
facet normal 0 0 0
 outer loop
  vertex 45 4 0
  vertex 6.685456275939941 -0.2218945324420929 0
  vertex 6.699999809265137 0 0
 endloop
endfacet
facet normal 0 0 0
 outer loop
  vertex 6.699999809265137 0 0
  vertex 6.685456275939941 0.2218945324420929 0
  vertex 45 4 0
 endloop
endfacet
facet normal 0 0 0
 outer loop
  vertex 0 -6 2.4000000953674316
  vertex 3.299999952316284 -2.0818995170458873e-16 2.4000000953674316
  vertex 3.3145437240600586 0.2218945324420929 2.4000000953674316
 endloop
endfacet
facet normal 0 0 0
 outer loop
  vertex 3.3145437240600586 -0.2218945324420929 2.4000000953674316
  vertex 3.299999952316284 -2.0818995170458873e-16 2.4000000953674316
  vertex 0 -6 2.4000000953674316
 endloop
endfacet
facet normal 0 0 0
 outer loop
  vertex 0 -6 2.4000000953674316
  vertex 43 -10 2.4000000953674316
  vertex 45 4 2.4000000953674316
 endloop
endfacet
facet normal 0 0 0
 outer loop
  vertex 45 4 2.4000000953674316
  vertex 6 7 2.4000000953674316
  vertex 0 6 2.4000000953674316
 endloop
endfacet
facet normal 0 0 0
 outer loop
  vertex 0 6 2.4000000953674316
  vertex 0 -6 2.4000000953674316
  vertex 3.3145437240600586 0.2218945324420929 2.4000000953674316
 endloop
endfacet
facet normal 0 0 0
 outer loop
  vertex 3.3579261302948 -0.43999236822128296 2.4000000953674316
  vertex 3.3145437240600586 -0.2218945324420929 2.4000000953674316
  vertex 0 -6 2.4000000953674316
 endloop
endfacet
facet normal 0 0 0
 outer loop
  vertex 0 6 2.4000000953674316
  vertex 3.3145437240600586 0.2218945324420929 2.4000000953674316
  vertex 3.3579261302948 0.43999236822128296 2.4000000953674316
 endloop
endfacet
facet normal 0 0 0
 outer loop
  vertex 3.4294047355651855 -0.6505618095397949 2.4000000953674316
  vertex 3.3579261302948 -0.43999236822128296 2.4000000953674316
  vertex 0 -6 2.4000000953674316
 endloop
endfacet
facet normal 0 0 0
 outer loop
  vertex 0 6 2.4000000953674316
  vertex 3.3579261302948 0.43999236822128296 2.4000000953674316
  vertex 3.4294047355651855 0.6505618095397949 2.4000000953674316
 endloop
endfacet
facet normal 0 0 0
 outer loop
  vertex 3.527756929397583 -0.8500000238418579 2.4000000953674316
  vertex 3.4294047355651855 -0.6505618095397949 2.4000000953674316
  vertex 0 -6 2.4000000953674316
 endloop
endfacet
facet normal 0 0 0
 outer loop
  vertex 0 6 2.4000000953674316
  vertex 3.4294047355651855 0.6505618095397949 2.4000000953674316
  vertex 3.527756929397583 0.8500000238418579 2.4000000953674316
 endloop
endfacet
facet normal 0 0 0
 outer loop
  vertex 3.651299238204956 -1.0348944664001465 2.4000000953674316
  vertex 3.527756929397583 -0.8500000238418579 2.4000000953674316
  vertex 0 -6 2.4000000953674316
 endloop
endfacet
facet normal 0 0 0
 outer loop
  vertex 0 6 2.4000000953674316
  vertex 3.527756929397583 0.8500000238418579 2.4000000953674316
  vertex 3.651299238204956 1.0348944664001465 2.4000000953674316
 endloop
endfacet
facet normal 0 0 0
 outer loop
  vertex 3.7979185581207275 -1.202081561088562 2.4000000953674316
  vertex 3.651299238204956 -1.0348944664001465 2.4000000953674316
  vertex 0 -6 2.4000000953674316
 endloop
endfacet
facet normal 0 0 0
 outer loop
  vertex 0 6 2.4000000953674316
  vertex 3.651299238204956 1.0348944664001465 2.4000000953674316
  vertex 3.7979185581207275 1.202081561088562 2.4000000953674316
 endloop
endfacet
facet normal 0 0 0
 outer loop
  vertex 3.9651055335998535 -1.3487006425857544 2.4000000953674316
  vertex 3.7979185581207275 -1.202081561088562 2.4000000953674316
  vertex 0 -6 2.4000000953674316
 endloop
endfacet
facet normal 0 0 0
 outer loop
  vertex 0 6 2.4000000953674316
  vertex 3.7979185581207275 1.202081561088562 2.4000000953674316
  vertex 3.9651055335998535 1.3487006425857544 2.4000000953674316
 endloop
endfacet
facet normal 0 0 0
 outer loop
  vertex 4.150000095367432 -1.4722431898117065 2.4000000953674316
  vertex 3.9651055335998535 -1.3487006425857544 2.4000000953674316
  vertex 0 -6 2.4000000953674316
 endloop
endfacet
facet normal 0 0 0
 outer loop
  vertex 0 6 2.4000000953674316
  vertex 3.9651055335998535 1.3487006425857544 2.4000000953674316
  vertex 4.150000095367432 1.4722431898117065 2.4000000953674316
 endloop
endfacet
facet normal 0 0 0
 outer loop
  vertex 4.349438190460205 -1.5705952644348145 2.4000000953674316
  vertex 4.150000095367432 -1.4722431898117065 2.4000000953674316
  vertex 0 -6 2.4000000953674316
 endloop
endfacet
facet normal 0 0 0
 outer loop
  vertex 0 6 2.4000000953674316
  vertex 4.150000095367432 1.4722431898117065 2.4000000953674316
  vertex 4.349438190460205 1.5705952644348145 2.4000000953674316
 endloop
endfacet
facet normal 0 0 0
 outer loop
  vertex 4.560007572174072 -1.6420738697052002 2.4000000953674316
  vertex 4.349438190460205 -1.5705952644348145 2.4000000953674316
  vertex 0 -6 2.4000000953674316
 endloop
endfacet
facet normal 0 0 0
 outer loop
  vertex 0 6 2.4000000953674316
  vertex 4.349438190460205 1.5705952644348145 2.4000000953674316
  vertex 4.560007572174072 1.6420738697052002 2.4000000953674316
 endloop
endfacet
facet normal 0 0 0
 outer loop
  vertex 4.77810525894165 -1.6854562759399414 2.4000000953674316
  vertex 4.560007572174072 -1.6420738697052002 2.4000000953674316
  vertex 0 -6 2.4000000953674316
 endloop
endfacet
facet normal 0 0 0
 outer loop
  vertex 0 6 2.4000000953674316
  vertex 4.560007572174072 1.6420738697052002 2.4000000953674316
  vertex 4.77810525894165 1.6854562759399414 2.4000000953674316
 endloop
endfacet
facet normal 0 0 0
 outer loop
  vertex 5 -1.7000000476837158 2.4000000953674316
  vertex 4.77810525894165 -1.6854562759399414 2.4000000953674316
  vertex 0 -6 2.4000000953674316
 endloop
endfacet
facet normal 0 0 0
 outer loop
  vertex 0 6 2.4000000953674316
  vertex 4.77810525894165 1.6854562759399414 2.4000000953674316
  vertex 5 1.7000000476837158 2.4000000953674316
 endloop
endfacet
facet normal 0 0 0
 outer loop
  vertex 5.22189474105835 -1.6854562759399414 2.4000000953674316
  vertex 5 -1.7000000476837158 2.4000000953674316
  vertex 0 -6 2.4000000953674316
 endloop
endfacet
facet normal 0 0 0
 outer loop
  vertex 45 4 2.4000000953674316
  vertex 0 6 2.4000000953674316
  vertex 5 1.7000000476837158 2.4000000953674316
 endloop
endfacet
facet normal 0 0 0
 outer loop
  vertex 5.439992427825928 -1.6420738697052002 2.4000000953674316
  vertex 5.22189474105835 -1.6854562759399414 2.4000000953674316
  vertex 0 -6 2.4000000953674316
 endloop
endfacet
facet normal 0 0 0
 outer loop
  vertex 45 4 2.4000000953674316
  vertex 5 1.7000000476837158 2.4000000953674316
  vertex 5.22189474105835 1.6854562759399414 2.4000000953674316
 endloop
endfacet
facet normal 0 0 0
 outer loop
  vertex 5.650561809539795 -1.5705952644348145 2.4000000953674316
  vertex 5.439992427825928 -1.6420738697052002 2.4000000953674316
  vertex 0 -6 2.4000000953674316
 endloop
endfacet
facet normal 0 0 0
 outer loop
  vertex 45 4 2.4000000953674316
  vertex 5.22189474105835 1.6854562759399414 2.4000000953674316
  vertex 5.439992427825928 1.6420738697052002 2.4000000953674316
 endloop
endfacet
facet normal 0 0 0
 outer loop
  vertex 5.849999904632568 -1.4722431898117065 2.4000000953674316
  vertex 5.650561809539795 -1.5705952644348145 2.4000000953674316
  vertex 0 -6 2.4000000953674316
 endloop
endfacet
facet normal 0 0 0
 outer loop
  vertex 45 4 2.4000000953674316
  vertex 5.439992427825928 1.6420738697052002 2.4000000953674316
  vertex 5.650561809539795 1.5705952644348145 2.4000000953674316
 endloop
endfacet
facet normal 0 0 0
 outer loop
  vertex 6.0348944664001465 -1.3487006425857544 2.4000000953674316
  vertex 5.849999904632568 -1.4722431898117065 2.4000000953674316
  vertex 0 -6 2.4000000953674316
 endloop
endfacet
facet normal 0 0 0
 outer loop
  vertex 45 4 2.4000000953674316
  vertex 5.650561809539795 1.5705952644348145 2.4000000953674316
  vertex 5.849999904632568 1.4722431898117065 2.4000000953674316
 endloop
endfacet
facet normal 0 0 0
 outer loop
  vertex 6.0348944664001465 -1.3487006425857544 2.4000000953674316
  vertex 0 -6 2.4000000953674316
  vertex 45 4 2.4000000953674316
 endloop
endfacet
facet normal 0 0 0
 outer loop
  vertex 45 4 2.4000000953674316
  vertex 5.849999904632568 1.4722431898117065 2.4000000953674316
  vertex 6.0348944664001465 1.3487006425857544 2.4000000953674316
 endloop
endfacet
facet normal 0 0 0
 outer loop
  vertex 6.202081680297852 -1.202081561088562 2.4000000953674316
  vertex 6.0348944664001465 -1.3487006425857544 2.4000000953674316
  vertex 45 4 2.4000000953674316
 endloop
endfacet
facet normal 0 0 0
 outer loop
  vertex 45 4 2.4000000953674316
  vertex 6.0348944664001465 1.3487006425857544 2.4000000953674316
  vertex 6.202081680297852 1.202081561088562 2.4000000953674316
 endloop
endfacet
facet normal 0 0 0
 outer loop
  vertex 6.348700523376465 -1.0348944664001465 2.4000000953674316
  vertex 6.202081680297852 -1.202081561088562 2.4000000953674316
  vertex 45 4 2.4000000953674316
 endloop
endfacet
facet normal 0 0 0
 outer loop
  vertex 45 4 2.4000000953674316
  vertex 6.202081680297852 1.202081561088562 2.4000000953674316
  vertex 6.348700523376465 1.0348944664001465 2.4000000953674316
 endloop
endfacet
facet normal 0 0 0
 outer loop
  vertex 6.472243309020996 -0.8500000238418579 2.4000000953674316
  vertex 6.348700523376465 -1.0348944664001465 2.4000000953674316
  vertex 45 4 2.4000000953674316
 endloop
endfacet
facet normal 0 0 0
 outer loop
  vertex 45 4 2.4000000953674316
  vertex 6.348700523376465 1.0348944664001465 2.4000000953674316
  vertex 6.472243309020996 0.8500000238418579 2.4000000953674316
 endloop
endfacet
facet normal 0 0 0
 outer loop
  vertex 6.5705952644348145 -0.6505618095397949 2.4000000953674316
  vertex 6.472243309020996 -0.8500000238418579 2.4000000953674316
  vertex 45 4 2.4000000953674316
 endloop
endfacet
facet normal 0 0 0
 outer loop
  vertex 45 4 2.4000000953674316
  vertex 6.472243309020996 0.8500000238418579 2.4000000953674316
  vertex 6.5705952644348145 0.6505618095397949 2.4000000953674316
 endloop
endfacet
facet normal 0 0 0
 outer loop
  vertex 6.642074108123779 -0.43999236822128296 2.4000000953674316
  vertex 6.5705952644348145 -0.6505618095397949 2.4000000953674316
  vertex 45 4 2.4000000953674316
 endloop
endfacet
facet normal 0 0 0
 outer loop
  vertex 45 4 2.4000000953674316
  vertex 6.5705952644348145 0.6505618095397949 2.4000000953674316
  vertex 6.642074108123779 0.43999236822128296 2.4000000953674316
 endloop
endfacet
facet normal 0 0 0
 outer loop
  vertex 6.685456275939941 -0.2218945324420929 2.4000000953674316
  vertex 6.642074108123779 -0.43999236822128296 2.4000000953674316
  vertex 45 4 2.4000000953674316
 endloop
endfacet
facet normal 0 0 0
 outer loop
  vertex 45 4 2.4000000953674316
  vertex 6.642074108123779 0.43999236822128296 2.4000000953674316
  vertex 6.685456275939941 0.2218945324420929 2.4000000953674316
 endloop
endfacet
facet normal 0 0 0
 outer loop
  vertex 6.699999809265137 0 2.4000000953674316
  vertex 6.685456275939941 -0.2218945324420929 2.4000000953674316
  vertex 45 4 2.4000000953674316
 endloop
endfacet
facet normal 0 0 0
 outer loop
  vertex 45 4 2.4000000953674316
  vertex 6.685456275939941 0.2218945324420929 2.4000000953674316
  vertex 6.699999809265137 0 2.4000000953674316
 endloop
endfacet
facet normal 0 0 0
 outer loop
  vertex 0 -6 0
  vertex 43 -10 0
  vertex 0 -6 2.4000000953674316
 endloop
endfacet
facet normal 0 0 0
 outer loop
  vertex 43 -10 0
  vertex 43 -10 2.4000000953674316
  vertex 0 -6 2.4000000953674316
 endloop
endfacet
facet normal 0 0 0
 outer loop
  vertex 43 -10 0
  vertex 45 4 0
  vertex 43 -10 2.4000000953674316
 endloop
endfacet
facet normal 0 0 0
 outer loop
  vertex 45 4 0
  vertex 45 4 2.4000000953674316
  vertex 43 -10 2.4000000953674316
 endloop
endfacet
facet normal 0 0 0
 outer loop
  vertex 45 4 0
  vertex 6 7 0
  vertex 45 4 2.4000000953674316
 endloop
endfacet
facet normal 0 0 0
 outer loop
  vertex 6 7 0
  vertex 6 7 2.4000000953674316
  vertex 45 4 2.4000000953674316
 endloop
endfacet
facet normal 0 0 0
 outer loop
  vertex 6 7 0
  vertex 0 6 0
  vertex 6 7 2.4000000953674316
 endloop
endfacet
facet normal 0 0 0
 outer loop
  vertex 0 6 0
  vertex 0 6 2.4000000953674316
  vertex 6 7 2.4000000953674316
 endloop
endfacet
facet normal 0 0 0
 outer loop
  vertex 0 6 0
  vertex 0 -6 0
  vertex 0 6 2.4000000953674316
 endloop
endfacet
facet normal 0 0 0
 outer loop
  vertex 0 -6 0
  vertex 0 -6 2.4000000953674316
  vertex 0 6 2.4000000953674316
 endloop
endfacet
facet normal 0 0 0
 outer loop
  vertex 6.699999809265137 0 0
  vertex 6.685456275939941 -0.2218945324420929 0
  vertex 6.699999809265137 0 2.4000000953674316
 endloop
endfacet
facet normal 0 0 0
 outer loop
  vertex 6.685456275939941 -0.2218945324420929 0
  vertex 6.685456275939941 -0.2218945324420929 2.4000000953674316
  vertex 6.699999809265137 0 2.4000000953674316
 endloop
endfacet
facet normal 0 0 0
 outer loop
  vertex 6.685456275939941 -0.2218945324420929 0
  vertex 6.642074108123779 -0.43999236822128296 0
  vertex 6.685456275939941 -0.2218945324420929 2.4000000953674316
 endloop
endfacet
facet normal 0 0 0
 outer loop
  vertex 6.642074108123779 -0.43999236822128296 0
  vertex 6.642074108123779 -0.43999236822128296 2.4000000953674316
  vertex 6.685456275939941 -0.2218945324420929 2.4000000953674316
 endloop
endfacet
facet normal 0 0 0
 outer loop
  vertex 6.642074108123779 -0.43999236822128296 0
  vertex 6.5705952644348145 -0.6505618095397949 0
  vertex 6.642074108123779 -0.43999236822128296 2.4000000953674316
 endloop
endfacet
facet normal 0 0 0
 outer loop
  vertex 6.5705952644348145 -0.6505618095397949 0
  vertex 6.5705952644348145 -0.6505618095397949 2.4000000953674316
  vertex 6.642074108123779 -0.43999236822128296 2.4000000953674316
 endloop
endfacet
facet normal 0 0 0
 outer loop
  vertex 6.5705952644348145 -0.6505618095397949 0
  vertex 6.472243309020996 -0.8500000238418579 0
  vertex 6.5705952644348145 -0.6505618095397949 2.4000000953674316
 endloop
endfacet
facet normal 0 0 0
 outer loop
  vertex 6.472243309020996 -0.8500000238418579 0
  vertex 6.472243309020996 -0.8500000238418579 2.4000000953674316
  vertex 6.5705952644348145 -0.6505618095397949 2.4000000953674316
 endloop
endfacet
facet normal 0 0 0
 outer loop
  vertex 6.472243309020996 -0.8500000238418579 0
  vertex 6.348700523376465 -1.0348944664001465 0
  vertex 6.472243309020996 -0.8500000238418579 2.4000000953674316
 endloop
endfacet
facet normal 0 0 0
 outer loop
  vertex 6.348700523376465 -1.0348944664001465 0
  vertex 6.348700523376465 -1.0348944664001465 2.4000000953674316
  vertex 6.472243309020996 -0.8500000238418579 2.4000000953674316
 endloop
endfacet
facet normal 0 0 0
 outer loop
  vertex 6.348700523376465 -1.0348944664001465 0
  vertex 6.202081680297852 -1.202081561088562 0
  vertex 6.348700523376465 -1.0348944664001465 2.4000000953674316
 endloop
endfacet
facet normal 0 0 0
 outer loop
  vertex 6.202081680297852 -1.202081561088562 0
  vertex 6.202081680297852 -1.202081561088562 2.4000000953674316
  vertex 6.348700523376465 -1.0348944664001465 2.4000000953674316
 endloop
endfacet
facet normal 0 0 0
 outer loop
  vertex 6.202081680297852 -1.202081561088562 0
  vertex 6.0348944664001465 -1.3487006425857544 0
  vertex 6.202081680297852 -1.202081561088562 2.4000000953674316
 endloop
endfacet
facet normal 0 0 0
 outer loop
  vertex 6.0348944664001465 -1.3487006425857544 0
  vertex 6.0348944664001465 -1.3487006425857544 2.4000000953674316
  vertex 6.202081680297852 -1.202081561088562 2.4000000953674316
 endloop
endfacet
facet normal 0 0 0
 outer loop
  vertex 6.0348944664001465 -1.3487006425857544 0
  vertex 5.849999904632568 -1.4722431898117065 0
  vertex 6.0348944664001465 -1.3487006425857544 2.4000000953674316
 endloop
endfacet
facet normal 0 0 0
 outer loop
  vertex 5.849999904632568 -1.4722431898117065 0
  vertex 5.849999904632568 -1.4722431898117065 2.4000000953674316
  vertex 6.0348944664001465 -1.3487006425857544 2.4000000953674316
 endloop
endfacet
facet normal 0 0 0
 outer loop
  vertex 5.849999904632568 -1.4722431898117065 0
  vertex 5.650561809539795 -1.5705952644348145 0
  vertex 5.849999904632568 -1.4722431898117065 2.4000000953674316
 endloop
endfacet
facet normal 0 0 0
 outer loop
  vertex 5.650561809539795 -1.5705952644348145 0
  vertex 5.650561809539795 -1.5705952644348145 2.4000000953674316
  vertex 5.849999904632568 -1.4722431898117065 2.4000000953674316
 endloop
endfacet
facet normal 0 0 0
 outer loop
  vertex 5.650561809539795 -1.5705952644348145 0
  vertex 5.439992427825928 -1.6420738697052002 0
  vertex 5.650561809539795 -1.5705952644348145 2.4000000953674316
 endloop
endfacet
facet normal 0 0 0
 outer loop
  vertex 5.439992427825928 -1.6420738697052002 0
  vertex 5.439992427825928 -1.6420738697052002 2.4000000953674316
  vertex 5.650561809539795 -1.5705952644348145 2.4000000953674316
 endloop
endfacet
facet normal 0 0 0
 outer loop
  vertex 5.439992427825928 -1.6420738697052002 0
  vertex 5.22189474105835 -1.6854562759399414 0
  vertex 5.439992427825928 -1.6420738697052002 2.4000000953674316
 endloop
endfacet
facet normal 0 0 0
 outer loop
  vertex 5.22189474105835 -1.6854562759399414 0
  vertex 5.22189474105835 -1.6854562759399414 2.4000000953674316
  vertex 5.439992427825928 -1.6420738697052002 2.4000000953674316
 endloop
endfacet
facet normal 0 0 0
 outer loop
  vertex 5.22189474105835 -1.6854562759399414 0
  vertex 5 -1.7000000476837158 0
  vertex 5.22189474105835 -1.6854562759399414 2.4000000953674316
 endloop
endfacet
facet normal 0 0 0
 outer loop
  vertex 5 -1.7000000476837158 0
  vertex 5 -1.7000000476837158 2.4000000953674316
  vertex 5.22189474105835 -1.6854562759399414 2.4000000953674316
 endloop
endfacet
facet normal 0 0 0
 outer loop
  vertex 5 -1.7000000476837158 0
  vertex 4.77810525894165 -1.6854562759399414 0
  vertex 5 -1.7000000476837158 2.4000000953674316
 endloop
endfacet
facet normal 0 0 0
 outer loop
  vertex 4.77810525894165 -1.6854562759399414 0
  vertex 4.77810525894165 -1.6854562759399414 2.4000000953674316
  vertex 5 -1.7000000476837158 2.4000000953674316
 endloop
endfacet
facet normal 0 0 0
 outer loop
  vertex 4.77810525894165 -1.6854562759399414 0
  vertex 4.560007572174072 -1.6420738697052002 0
  vertex 4.77810525894165 -1.6854562759399414 2.4000000953674316
 endloop
endfacet
facet normal 0 0 0
 outer loop
  vertex 4.560007572174072 -1.6420738697052002 0
  vertex 4.560007572174072 -1.6420738697052002 2.4000000953674316
  vertex 4.77810525894165 -1.6854562759399414 2.4000000953674316
 endloop
endfacet
facet normal 0 0 0
 outer loop
  vertex 4.560007572174072 -1.6420738697052002 0
  vertex 4.349438190460205 -1.5705952644348145 0
  vertex 4.560007572174072 -1.6420738697052002 2.4000000953674316
 endloop
endfacet
facet normal 0 0 0
 outer loop
  vertex 4.349438190460205 -1.5705952644348145 0
  vertex 4.349438190460205 -1.5705952644348145 2.4000000953674316
  vertex 4.560007572174072 -1.6420738697052002 2.4000000953674316
 endloop
endfacet
facet normal 0 0 0
 outer loop
  vertex 4.349438190460205 -1.5705952644348145 0
  vertex 4.150000095367432 -1.4722431898117065 0
  vertex 4.349438190460205 -1.5705952644348145 2.4000000953674316
 endloop
endfacet
facet normal 0 0 0
 outer loop
  vertex 4.150000095367432 -1.4722431898117065 0
  vertex 4.150000095367432 -1.4722431898117065 2.4000000953674316
  vertex 4.349438190460205 -1.5705952644348145 2.4000000953674316
 endloop
endfacet
facet normal 0 0 0
 outer loop
  vertex 4.150000095367432 -1.4722431898117065 0
  vertex 3.9651055335998535 -1.3487006425857544 0
  vertex 4.150000095367432 -1.4722431898117065 2.4000000953674316
 endloop
endfacet
facet normal 0 0 0
 outer loop
  vertex 3.9651055335998535 -1.3487006425857544 0
  vertex 3.9651055335998535 -1.3487006425857544 2.4000000953674316
  vertex 4.150000095367432 -1.4722431898117065 2.4000000953674316
 endloop
endfacet
facet normal 0 0 0
 outer loop
  vertex 3.9651055335998535 -1.3487006425857544 0
  vertex 3.7979185581207275 -1.202081561088562 0
  vertex 3.9651055335998535 -1.3487006425857544 2.4000000953674316
 endloop
endfacet
facet normal 0 0 0
 outer loop
  vertex 3.7979185581207275 -1.202081561088562 0
  vertex 3.7979185581207275 -1.202081561088562 2.4000000953674316
  vertex 3.9651055335998535 -1.3487006425857544 2.4000000953674316
 endloop
endfacet
facet normal 0 0 0
 outer loop
  vertex 3.7979185581207275 -1.202081561088562 0
  vertex 3.651299238204956 -1.0348944664001465 0
  vertex 3.7979185581207275 -1.202081561088562 2.4000000953674316
 endloop
endfacet
facet normal 0 0 0
 outer loop
  vertex 3.651299238204956 -1.0348944664001465 0
  vertex 3.651299238204956 -1.0348944664001465 2.4000000953674316
  vertex 3.7979185581207275 -1.202081561088562 2.4000000953674316
 endloop
endfacet
facet normal 0 0 0
 outer loop
  vertex 3.651299238204956 -1.0348944664001465 0
  vertex 3.527756929397583 -0.8500000238418579 0
  vertex 3.651299238204956 -1.0348944664001465 2.4000000953674316
 endloop
endfacet
facet normal 0 0 0
 outer loop
  vertex 3.527756929397583 -0.8500000238418579 0
  vertex 3.527756929397583 -0.8500000238418579 2.4000000953674316
  vertex 3.651299238204956 -1.0348944664001465 2.4000000953674316
 endloop
endfacet
facet normal 0 0 0
 outer loop
  vertex 3.527756929397583 -0.8500000238418579 0
  vertex 3.4294047355651855 -0.6505618095397949 0
  vertex 3.527756929397583 -0.8500000238418579 2.4000000953674316
 endloop
endfacet
facet normal 0 0 0
 outer loop
  vertex 3.4294047355651855 -0.6505618095397949 0
  vertex 3.4294047355651855 -0.6505618095397949 2.4000000953674316
  vertex 3.527756929397583 -0.8500000238418579 2.4000000953674316
 endloop
endfacet
facet normal 0 0 0
 outer loop
  vertex 3.4294047355651855 -0.6505618095397949 0
  vertex 3.3579261302948 -0.43999236822128296 0
  vertex 3.4294047355651855 -0.6505618095397949 2.4000000953674316
 endloop
endfacet
facet normal 0 0 0
 outer loop
  vertex 3.3579261302948 -0.43999236822128296 0
  vertex 3.3579261302948 -0.43999236822128296 2.4000000953674316
  vertex 3.4294047355651855 -0.6505618095397949 2.4000000953674316
 endloop
endfacet
facet normal 0 0 0
 outer loop
  vertex 3.3579261302948 -0.43999236822128296 0
  vertex 3.3145437240600586 -0.2218945324420929 0
  vertex 3.3579261302948 -0.43999236822128296 2.4000000953674316
 endloop
endfacet
facet normal 0 0 0
 outer loop
  vertex 3.3145437240600586 -0.2218945324420929 0
  vertex 3.3145437240600586 -0.2218945324420929 2.4000000953674316
  vertex 3.3579261302948 -0.43999236822128296 2.4000000953674316
 endloop
endfacet
facet normal 0 0 0
 outer loop
  vertex 3.3145437240600586 -0.2218945324420929 0
  vertex 3.299999952316284 -2.0818995170458873e-16 0
  vertex 3.3145437240600586 -0.2218945324420929 2.4000000953674316
 endloop
endfacet
facet normal 0 0 0
 outer loop
  vertex 3.299999952316284 -2.0818995170458873e-16 0
  vertex 3.299999952316284 -2.0818995170458873e-16 2.4000000953674316
  vertex 3.3145437240600586 -0.2218945324420929 2.4000000953674316
 endloop
endfacet
facet normal 0 0 0
 outer loop
  vertex 3.299999952316284 -2.0818995170458873e-16 0
  vertex 3.3145437240600586 0.2218945324420929 0
  vertex 3.299999952316284 -2.0818995170458873e-16 2.4000000953674316
 endloop
endfacet
facet normal 0 0 0
 outer loop
  vertex 3.3145437240600586 0.2218945324420929 0
  vertex 3.3145437240600586 0.2218945324420929 2.4000000953674316
  vertex 3.299999952316284 -2.0818995170458873e-16 2.4000000953674316
 endloop
endfacet
facet normal 0 0 0
 outer loop
  vertex 3.3145437240600586 0.2218945324420929 0
  vertex 3.3579261302948 0.43999236822128296 0
  vertex 3.3145437240600586 0.2218945324420929 2.4000000953674316
 endloop
endfacet
facet normal 0 0 0
 outer loop
  vertex 3.3579261302948 0.43999236822128296 0
  vertex 3.3579261302948 0.43999236822128296 2.4000000953674316
  vertex 3.3145437240600586 0.2218945324420929 2.4000000953674316
 endloop
endfacet
facet normal 0 0 0
 outer loop
  vertex 3.3579261302948 0.43999236822128296 0
  vertex 3.4294047355651855 0.6505618095397949 0
  vertex 3.3579261302948 0.43999236822128296 2.4000000953674316
 endloop
endfacet
facet normal 0 0 0
 outer loop
  vertex 3.4294047355651855 0.6505618095397949 0
  vertex 3.4294047355651855 0.6505618095397949 2.4000000953674316
  vertex 3.3579261302948 0.43999236822128296 2.4000000953674316
 endloop
endfacet
facet normal 0 0 0
 outer loop
  vertex 3.4294047355651855 0.6505618095397949 0
  vertex 3.527756929397583 0.8500000238418579 0
  vertex 3.4294047355651855 0.6505618095397949 2.4000000953674316
 endloop
endfacet
facet normal 0 0 0
 outer loop
  vertex 3.527756929397583 0.8500000238418579 0
  vertex 3.527756929397583 0.8500000238418579 2.4000000953674316
  vertex 3.4294047355651855 0.6505618095397949 2.4000000953674316
 endloop
endfacet
facet normal 0 0 0
 outer loop
  vertex 3.527756929397583 0.8500000238418579 0
  vertex 3.651299238204956 1.0348944664001465 0
  vertex 3.527756929397583 0.8500000238418579 2.4000000953674316
 endloop
endfacet
facet normal 0 0 0
 outer loop
  vertex 3.651299238204956 1.0348944664001465 0
  vertex 3.651299238204956 1.0348944664001465 2.4000000953674316
  vertex 3.527756929397583 0.8500000238418579 2.4000000953674316
 endloop
endfacet
facet normal 0 0 0
 outer loop
  vertex 3.651299238204956 1.0348944664001465 0
  vertex 3.7979185581207275 1.202081561088562 0
  vertex 3.651299238204956 1.0348944664001465 2.4000000953674316
 endloop
endfacet
facet normal 0 0 0
 outer loop
  vertex 3.7979185581207275 1.202081561088562 0
  vertex 3.7979185581207275 1.202081561088562 2.4000000953674316
  vertex 3.651299238204956 1.0348944664001465 2.4000000953674316
 endloop
endfacet
facet normal 0 0 0
 outer loop
  vertex 3.7979185581207275 1.202081561088562 0
  vertex 3.9651055335998535 1.3487006425857544 0
  vertex 3.7979185581207275 1.202081561088562 2.4000000953674316
 endloop
endfacet
facet normal 0 0 0
 outer loop
  vertex 3.9651055335998535 1.3487006425857544 0
  vertex 3.9651055335998535 1.3487006425857544 2.4000000953674316
  vertex 3.7979185581207275 1.202081561088562 2.4000000953674316
 endloop
endfacet
facet normal 0 0 0
 outer loop
  vertex 3.9651055335998535 1.3487006425857544 0
  vertex 4.150000095367432 1.4722431898117065 0
  vertex 3.9651055335998535 1.3487006425857544 2.4000000953674316
 endloop
endfacet
facet normal 0 0 0
 outer loop
  vertex 4.150000095367432 1.4722431898117065 0
  vertex 4.150000095367432 1.4722431898117065 2.4000000953674316
  vertex 3.9651055335998535 1.3487006425857544 2.4000000953674316
 endloop
endfacet
facet normal 0 0 0
 outer loop
  vertex 4.150000095367432 1.4722431898117065 0
  vertex 4.349438190460205 1.5705952644348145 0
  vertex 4.150000095367432 1.4722431898117065 2.4000000953674316
 endloop
endfacet
facet normal 0 0 0
 outer loop
  vertex 4.349438190460205 1.5705952644348145 0
  vertex 4.349438190460205 1.5705952644348145 2.4000000953674316
  vertex 4.150000095367432 1.4722431898117065 2.4000000953674316
 endloop
endfacet
facet normal 0 0 0
 outer loop
  vertex 4.349438190460205 1.5705952644348145 0
  vertex 4.560007572174072 1.6420738697052002 0
  vertex 4.349438190460205 1.5705952644348145 2.4000000953674316
 endloop
endfacet
facet normal 0 0 0
 outer loop
  vertex 4.560007572174072 1.6420738697052002 0
  vertex 4.560007572174072 1.6420738697052002 2.4000000953674316
  vertex 4.349438190460205 1.5705952644348145 2.4000000953674316
 endloop
endfacet
facet normal 0 0 0
 outer loop
  vertex 4.560007572174072 1.6420738697052002 0
  vertex 4.77810525894165 1.6854562759399414 0
  vertex 4.560007572174072 1.6420738697052002 2.4000000953674316
 endloop
endfacet
facet normal 0 0 0
 outer loop
  vertex 4.77810525894165 1.6854562759399414 0
  vertex 4.77810525894165 1.6854562759399414 2.4000000953674316
  vertex 4.560007572174072 1.6420738697052002 2.4000000953674316
 endloop
endfacet
facet normal 0 0 0
 outer loop
  vertex 4.77810525894165 1.6854562759399414 0
  vertex 5 1.7000000476837158 0
  vertex 4.77810525894165 1.6854562759399414 2.4000000953674316
 endloop
endfacet
facet normal 0 0 0
 outer loop
  vertex 5 1.7000000476837158 0
  vertex 5 1.7000000476837158 2.4000000953674316
  vertex 4.77810525894165 1.6854562759399414 2.4000000953674316
 endloop
endfacet
facet normal 0 0 0
 outer loop
  vertex 5 1.7000000476837158 0
  vertex 5.22189474105835 1.6854562759399414 0
  vertex 5 1.7000000476837158 2.4000000953674316
 endloop
endfacet
facet normal 0 0 0
 outer loop
  vertex 5.22189474105835 1.6854562759399414 0
  vertex 5.22189474105835 1.6854562759399414 2.4000000953674316
  vertex 5 1.7000000476837158 2.4000000953674316
 endloop
endfacet
facet normal 0 0 0
 outer loop
  vertex 5.22189474105835 1.6854562759399414 0
  vertex 5.439992427825928 1.6420738697052002 0
  vertex 5.22189474105835 1.6854562759399414 2.4000000953674316
 endloop
endfacet
facet normal 0 0 0
 outer loop
  vertex 5.439992427825928 1.6420738697052002 0
  vertex 5.439992427825928 1.6420738697052002 2.4000000953674316
  vertex 5.22189474105835 1.6854562759399414 2.4000000953674316
 endloop
endfacet
facet normal 0 0 0
 outer loop
  vertex 5.439992427825928 1.6420738697052002 0
  vertex 5.650561809539795 1.5705952644348145 0
  vertex 5.439992427825928 1.6420738697052002 2.4000000953674316
 endloop
endfacet
facet normal 0 0 0
 outer loop
  vertex 5.650561809539795 1.5705952644348145 0
  vertex 5.650561809539795 1.5705952644348145 2.4000000953674316
  vertex 5.439992427825928 1.6420738697052002 2.4000000953674316
 endloop
endfacet
facet normal 0 0 0
 outer loop
  vertex 5.650561809539795 1.5705952644348145 0
  vertex 5.849999904632568 1.4722431898117065 0
  vertex 5.650561809539795 1.5705952644348145 2.4000000953674316
 endloop
endfacet
facet normal 0 0 0
 outer loop
  vertex 5.849999904632568 1.4722431898117065 0
  vertex 5.849999904632568 1.4722431898117065 2.4000000953674316
  vertex 5.650561809539795 1.5705952644348145 2.4000000953674316
 endloop
endfacet
facet normal 0 0 0
 outer loop
  vertex 5.849999904632568 1.4722431898117065 0
  vertex 6.0348944664001465 1.3487006425857544 0
  vertex 5.849999904632568 1.4722431898117065 2.4000000953674316
 endloop
endfacet
facet normal 0 0 0
 outer loop
  vertex 6.0348944664001465 1.3487006425857544 0
  vertex 6.0348944664001465 1.3487006425857544 2.4000000953674316
  vertex 5.849999904632568 1.4722431898117065 2.4000000953674316
 endloop
endfacet
facet normal 0 0 0
 outer loop
  vertex 6.0348944664001465 1.3487006425857544 0
  vertex 6.202081680297852 1.202081561088562 0
  vertex 6.0348944664001465 1.3487006425857544 2.4000000953674316
 endloop
endfacet
facet normal 0 0 0
 outer loop
  vertex 6.202081680297852 1.202081561088562 0
  vertex 6.202081680297852 1.202081561088562 2.4000000953674316
  vertex 6.0348944664001465 1.3487006425857544 2.4000000953674316
 endloop
endfacet
facet normal 0 0 0
 outer loop
  vertex 6.202081680297852 1.202081561088562 0
  vertex 6.348700523376465 1.0348944664001465 0
  vertex 6.202081680297852 1.202081561088562 2.4000000953674316
 endloop
endfacet
facet normal 0 0 0
 outer loop
  vertex 6.348700523376465 1.0348944664001465 0
  vertex 6.348700523376465 1.0348944664001465 2.4000000953674316
  vertex 6.202081680297852 1.202081561088562 2.4000000953674316
 endloop
endfacet
facet normal 0 0 0
 outer loop
  vertex 6.348700523376465 1.0348944664001465 0
  vertex 6.472243309020996 0.8500000238418579 0
  vertex 6.348700523376465 1.0348944664001465 2.4000000953674316
 endloop
endfacet
facet normal 0 0 0
 outer loop
  vertex 6.472243309020996 0.8500000238418579 0
  vertex 6.472243309020996 0.8500000238418579 2.4000000953674316
  vertex 6.348700523376465 1.0348944664001465 2.4000000953674316
 endloop
endfacet
facet normal 0 0 0
 outer loop
  vertex 6.472243309020996 0.8500000238418579 0
  vertex 6.5705952644348145 0.6505618095397949 0
  vertex 6.472243309020996 0.8500000238418579 2.4000000953674316
 endloop
endfacet
facet normal 0 0 0
 outer loop
  vertex 6.5705952644348145 0.6505618095397949 0
  vertex 6.5705952644348145 0.6505618095397949 2.4000000953674316
  vertex 6.472243309020996 0.8500000238418579 2.4000000953674316
 endloop
endfacet
facet normal 0 0 0
 outer loop
  vertex 6.5705952644348145 0.6505618095397949 0
  vertex 6.642074108123779 0.43999236822128296 0
  vertex 6.5705952644348145 0.6505618095397949 2.4000000953674316
 endloop
endfacet
facet normal 0 0 0
 outer loop
  vertex 6.642074108123779 0.43999236822128296 0
  vertex 6.642074108123779 0.43999236822128296 2.4000000953674316
  vertex 6.5705952644348145 0.6505618095397949 2.4000000953674316
 endloop
endfacet
facet normal 0 0 0
 outer loop
  vertex 6.642074108123779 0.43999236822128296 0
  vertex 6.685456275939941 0.2218945324420929 0
  vertex 6.642074108123779 0.43999236822128296 2.4000000953674316
 endloop
endfacet
facet normal 0 0 0
 outer loop
  vertex 6.685456275939941 0.2218945324420929 0
  vertex 6.685456275939941 0.2218945324420929 2.4000000953674316
  vertex 6.642074108123779 0.43999236822128296 2.4000000953674316
 endloop
endfacet
facet normal 0 0 0
 outer loop
  vertex 6.685456275939941 0.2218945324420929 0
  vertex 6.699999809265137 0 0
  vertex 6.685456275939941 0.2218945324420929 2.4000000953674316
 endloop
endfacet
facet normal 0 0 0
 outer loop
  vertex 6.699999809265137 0 0
  vertex 6.699999809265137 0 2.4000000953674316
  vertex 6.685456275939941 0.2218945324420929 2.4000000953674316
 endloop
endfacet
endsolid systemedu
