solid systemedu
facet normal 0 0 0
 outer loop
vertex 0 0 0
vertex 0 24 0
vertex 5 24 0
 endloop
endfacet
facet normal 0 0 0
 outer loop
vertex 24 5 0
vertex 24 0 0
vertex 0 0 0
 endloop
endfacet
facet normal 0 0 0
 outer loop
vertex 0 0 0
vertex 5 24 0
vertex 5 5 0
 endloop
endfacet
facet normal 0 0 0
 outer loop
vertex 5 5 0
vertex 24 5 0
vertex 0 0 0
 endloop
endfacet
facet normal 0 0 0
 outer loop
vertex 5 24 18
vertex 0 24 18
vertex 0 0 18
 endloop
endfacet
facet normal 0 0 0
 outer loop
vertex 0 0 18
vertex 24 0 18
vertex 24 5 18
 endloop
endfacet
facet normal 0 0 0
 outer loop
vertex 5 5 18
vertex 5 24 18
vertex 0 0 18
 endloop
endfacet
facet normal 0 0 0
 outer loop
vertex 0 0 18
vertex 24 5 18
vertex 5 5 18
 endloop
endfacet
facet normal 0 0 0
 outer loop
vertex 0 0 0
vertex 24 0 0
vertex 0 0 18
 endloop
endfacet
facet normal 0 0 0
 outer loop
vertex 24 0 0
vertex 24 0 18
vertex 0 0 18
 endloop
endfacet
facet normal 0 0 0
 outer loop
vertex 24 0 0
vertex 24 5 0
vertex 24 0 18
 endloop
endfacet
facet normal 0 0 0
 outer loop
vertex 24 5 0
vertex 24 5 18
vertex 24 0 18
 endloop
endfacet
facet normal 0 0 0
 outer loop
vertex 24 5 0
vertex 5 5 0
vertex 24 5 18
 endloop
endfacet
facet normal 0 0 0
 outer loop
vertex 5 5 0
vertex 5 5 18
vertex 24 5 18
 endloop
endfacet
facet normal 0 0 0
 outer loop
vertex 5 5 0
vertex 5 24 0
vertex 5 5 18
 endloop
endfacet
facet normal 0 0 0
 outer loop
vertex 5 24 0
vertex 5 24 18
vertex 5 5 18
 endloop
endfacet
facet normal 0 0 0
 outer loop
vertex 5 24 0
vertex 0 24 0
vertex 5 24 18
 endloop
endfacet
facet normal 0 0 0
 outer loop
vertex 0 24 0
vertex 0 24 18
vertex 5 24 18
 endloop
endfacet
facet normal 0 0 0
 outer loop
vertex 0 24 0
vertex 0 0 0
vertex 0 24 18
 endloop
endfacet
facet normal 0 0 0
 outer loop
vertex 0 0 0
vertex 0 0 18
vertex 0 24 18
 endloop
endfacet
endsolid systemedu
