solid systemedu
facet normal 0 0 0
 outer loop
vertex -1.6918140649795532 8.16662883758545 0
vertex -1.7000000476837158 8 0
vertex -10 0 0
 endloop
endfacet
facet normal 0 0 0
 outer loop
vertex -10 0 0
vertex -1.7000000476837158 8 0
vertex -1.6918140649795532 7.833370685577393 0
 endloop
endfacet
facet normal 0 0 0
 outer loop
vertex -1.6918140649795532 8.16662883758545 0
vertex -10 0 0
vertex -10 16 0
 endloop
endfacet
facet normal 0 0 0
 outer loop
vertex -10 0 0
vertex -1.6918140649795532 7.833370685577393 0
vertex -1.667335033416748 7.668346405029297 0
 endloop
endfacet
facet normal 0 0 0
 outer loop
vertex -1.667335033416748 8.331653594970703 0
vertex -1.6918140649795532 8.16662883758545 0
vertex -10 16 0
 endloop
endfacet
facet normal 0 0 0
 outer loop
vertex -10 0 0
vertex -1.667335033416748 7.668346405029297 0
vertex -1.6267986297607422 7.506515979766846 0
 endloop
endfacet
facet normal 0 0 0
 outer loop
vertex -1.6267986297607422 8.493483543395996 0
vertex -1.667335033416748 8.331653594970703 0
vertex -10 16 0
 endloop
endfacet
facet normal 0 0 0
 outer loop
vertex -10 0 0
vertex -1.6267986297607422 7.506515979766846 0
vertex -1.5705952644348145 7.349438190460205 0
 endloop
endfacet
facet normal 0 0 0
 outer loop
vertex -1.5705952644348145 8.650562286376953 0
vertex -1.6267986297607422 8.493483543395996 0
vertex -10 16 0
 endloop
endfacet
facet normal 0 0 0
 outer loop
vertex -10 0 0
vertex -1.5705952644348145 7.349438190460205 0
vertex -1.4992661476135254 7.198625564575195 0
 endloop
endfacet
facet normal 0 0 0
 outer loop
vertex -1.4992661476135254 8.801374435424805 0
vertex -1.5705952644348145 8.650562286376953 0
vertex -10 16 0
 endloop
endfacet
facet normal 0 0 0
 outer loop
vertex -10 0 0
vertex -1.4992661476135254 7.198625564575195 0
vertex -1.4134982824325562 7.055530548095703 0
 endloop
endfacet
facet normal 0 0 0
 outer loop
vertex -1.4134982824325562 8.944469451904297 0
vertex -1.4992661476135254 8.801374435424805 0
vertex -10 16 0
 endloop
endfacet
facet normal 0 0 0
 outer loop
vertex -10 0 0
vertex -1.4134982824325562 7.055530548095703 0
vertex -1.3141177892684937 6.9215312004089355 0
 endloop
endfacet
facet normal 0 0 0
 outer loop
vertex -1.3141177892684937 9.078468322753906 0
vertex -1.4134982824325562 8.944469451904297 0
vertex -10 16 0
 endloop
endfacet
facet normal 0 0 0
 outer loop
vertex -10 0 0
vertex -1.3141177892684937 6.9215312004089355 0
vertex -1.202081561088562 6.797918319702148 0
 endloop
endfacet
facet normal 0 0 0
 outer loop
vertex -1.202081561088562 9.202081680297852 0
vertex -1.3141177892684937 9.078468322753906 0
vertex -10 16 0
 endloop
endfacet
facet normal 0 0 0
 outer loop
vertex -10 0 0
vertex -1.202081561088562 6.797918319702148 0
vertex -1.0784685611724854 6.685882091522217 0
 endloop
endfacet
facet normal 0 0 0
 outer loop
vertex -1.0784685611724854 9.314117431640625 0
vertex -1.202081561088562 9.202081680297852 0
vertex -10 16 0
 endloop
endfacet
facet normal 0 0 0
 outer loop
vertex -10 0 0
vertex -1.0784685611724854 6.685882091522217 0
vertex -0.9444693922996521 6.586501598358154 0
 endloop
endfacet
facet normal 0 0 0
 outer loop
vertex -0.9444693922996521 9.413497924804688 0
vertex -1.0784685611724854 9.314117431640625 0
vertex -10 16 0
 endloop
endfacet
facet normal 0 0 0
 outer loop
vertex -10 0 0
vertex -0.9444693922996521 6.586501598358154 0
vertex -0.8013744354248047 6.500733852386475 0
 endloop
endfacet
facet normal 0 0 0
 outer loop
vertex -0.9444693922996521 9.413497924804688 0
vertex -10 16 0
vertex 10 16 0
 endloop
endfacet
facet normal 0 0 0
 outer loop
vertex -10 0 0
vertex -0.8013744354248047 6.500733852386475 0
vertex -0.6505618095397949 6.4294047355651855 0
 endloop
endfacet
facet normal 0 0 0
 outer loop
vertex -0.8013744354248047 9.499266624450684 0
vertex -0.9444693922996521 9.413497924804688 0
vertex 10 16 0
 endloop
endfacet
facet normal 0 0 0
 outer loop
vertex -10 0 0
vertex -0.6505618095397949 6.4294047355651855 0
vertex -0.4934839606285095 6.373201370239258 0
 endloop
endfacet
facet normal 0 0 0
 outer loop
vertex -0.6505618095397949 9.570594787597656 0
vertex -0.8013744354248047 9.499266624450684 0
vertex 10 16 0
 endloop
endfacet
facet normal 0 0 0
 outer loop
vertex -10 0 0
vertex -0.4934839606285095 6.373201370239258 0
vertex -0.33165353536605835 6.332664966583252 0
 endloop
endfacet
facet normal 0 0 0
 outer loop
vertex -0.4934839606285095 9.626798629760742 0
vertex -0.6505618095397949 9.570594787597656 0
vertex 10 16 0
 endloop
endfacet
facet normal 0 0 0
 outer loop
vertex -10 0 0
vertex -0.33165353536605835 6.332664966583252 0
vertex -0.1666291356086731 6.308186054229736 0
 endloop
endfacet
facet normal 0 0 0
 outer loop
vertex -0.33165353536605835 9.66733455657959 0
vertex -0.4934839606285095 9.626798629760742 0
vertex 10 16 0
 endloop
endfacet
facet normal 0 0 0
 outer loop
vertex -10 0 0
vertex -0.1666291356086731 6.308186054229736 0
vertex 1.0409497585229437e-16 6.300000190734863 0
 endloop
endfacet
facet normal 0 0 0
 outer loop
vertex -0.1666291356086731 9.691814422607422 0
vertex -0.33165353536605835 9.66733455657959 0
vertex 10 16 0
 endloop
endfacet
facet normal 0 0 0
 outer loop
vertex -10 0 0
vertex 1.0409497585229437e-16 6.300000190734863 0
vertex 0.1666291356086731 6.308186054229736 0
 endloop
endfacet
facet normal 0 0 0
 outer loop
vertex -3.122849275568831e-16 9.699999809265137 0
vertex -0.1666291356086731 9.691814422607422 0
vertex 10 16 0
 endloop
endfacet
facet normal 0 0 0
 outer loop
vertex -10 0 0
vertex 0.1666291356086731 6.308186054229736 0
vertex 0.33165353536605835 6.332664966583252 0
 endloop
endfacet
facet normal 0 0 0
 outer loop
vertex 0.1666291356086731 9.691814422607422 0
vertex -3.122849275568831e-16 9.699999809265137 0
vertex 10 16 0
 endloop
endfacet
facet normal 0 0 0
 outer loop
vertex -10 0 0
vertex 0.33165353536605835 6.332664966583252 0
vertex 0.4934839606285095 6.373201370239258 0
 endloop
endfacet
facet normal 0 0 0
 outer loop
vertex 0.33165353536605835 9.66733455657959 0
vertex 0.1666291356086731 9.691814422607422 0
vertex 10 16 0
 endloop
endfacet
facet normal 0 0 0
 outer loop
vertex -10 0 0
vertex 0.4934839606285095 6.373201370239258 0
vertex 0.6505618095397949 6.4294047355651855 0
 endloop
endfacet
facet normal 0 0 0
 outer loop
vertex 0.4934839606285095 9.626798629760742 0
vertex 0.33165353536605835 9.66733455657959 0
vertex 10 16 0
 endloop
endfacet
facet normal 0 0 0
 outer loop
vertex -10 0 0
vertex 0.6505618095397949 6.4294047355651855 0
vertex 0.8013744354248047 6.500733852386475 0
 endloop
endfacet
facet normal 0 0 0
 outer loop
vertex 0.6505618095397949 9.570594787597656 0
vertex 0.4934839606285095 9.626798629760742 0
vertex 10 16 0
 endloop
endfacet
facet normal 0 0 0
 outer loop
vertex -10 0 0
vertex 0.8013744354248047 6.500733852386475 0
vertex 0.9444693922996521 6.586501598358154 0
 endloop
endfacet
facet normal 0 0 0
 outer loop
vertex 0.8013744354248047 9.499266624450684 0
vertex 0.6505618095397949 9.570594787597656 0
vertex 10 16 0
 endloop
endfacet
facet normal 0 0 0
 outer loop
vertex 10 0 0
vertex -10 0 0
vertex 0.9444693922996521 6.586501598358154 0
 endloop
endfacet
facet normal 0 0 0
 outer loop
vertex 0.9444693922996521 9.413497924804688 0
vertex 0.8013744354248047 9.499266624450684 0
vertex 10 16 0
 endloop
endfacet
facet normal 0 0 0
 outer loop
vertex 10 0 0
vertex 0.9444693922996521 6.586501598358154 0
vertex 1.0784685611724854 6.685882091522217 0
 endloop
endfacet
facet normal 0 0 0
 outer loop
vertex 1.0784685611724854 9.314117431640625 0
vertex 0.9444693922996521 9.413497924804688 0
vertex 10 16 0
 endloop
endfacet
facet normal 0 0 0
 outer loop
vertex 10 0 0
vertex 1.0784685611724854 6.685882091522217 0
vertex 1.202081561088562 6.797918319702148 0
 endloop
endfacet
facet normal 0 0 0
 outer loop
vertex 1.202081561088562 9.202081680297852 0
vertex 1.0784685611724854 9.314117431640625 0
vertex 10 16 0
 endloop
endfacet
facet normal 0 0 0
 outer loop
vertex 10 0 0
vertex 1.202081561088562 6.797918319702148 0
vertex 1.3141177892684937 6.9215312004089355 0
 endloop
endfacet
facet normal 0 0 0
 outer loop
vertex 1.202081561088562 9.202081680297852 0
vertex 10 16 0
vertex 10 0 0
 endloop
endfacet
facet normal 0 0 0
 outer loop
vertex 10 0 0
vertex 1.3141177892684937 6.9215312004089355 0
vertex 1.4134982824325562 7.055530548095703 0
 endloop
endfacet
facet normal 0 0 0
 outer loop
vertex 1.3141177892684937 9.078468322753906 0
vertex 1.202081561088562 9.202081680297852 0
vertex 10 0 0
 endloop
endfacet
facet normal 0 0 0
 outer loop
vertex 10 0 0
vertex 1.4134982824325562 7.055530548095703 0
vertex 1.4992661476135254 7.198625564575195 0
 endloop
endfacet
facet normal 0 0 0
 outer loop
vertex 1.4134982824325562 8.944469451904297 0
vertex 1.3141177892684937 9.078468322753906 0
vertex 10 0 0
 endloop
endfacet
facet normal 0 0 0
 outer loop
vertex 10 0 0
vertex 1.4992661476135254 7.198625564575195 0
vertex 1.5705952644348145 7.349438190460205 0
 endloop
endfacet
facet normal 0 0 0
 outer loop
vertex 1.4992661476135254 8.801374435424805 0
vertex 1.4134982824325562 8.944469451904297 0
vertex 10 0 0
 endloop
endfacet
facet normal 0 0 0
 outer loop
vertex 10 0 0
vertex 1.5705952644348145 7.349438190460205 0
vertex 1.6267986297607422 7.506515979766846 0
 endloop
endfacet
facet normal 0 0 0
 outer loop
vertex 1.5705952644348145 8.650562286376953 0
vertex 1.4992661476135254 8.801374435424805 0
vertex 10 0 0
 endloop
endfacet
facet normal 0 0 0
 outer loop
vertex 10 0 0
vertex 1.6267986297607422 7.506515979766846 0
vertex 1.667335033416748 7.668346405029297 0
 endloop
endfacet
facet normal 0 0 0
 outer loop
vertex 1.6267986297607422 8.493483543395996 0
vertex 1.5705952644348145 8.650562286376953 0
vertex 10 0 0
 endloop
endfacet
facet normal 0 0 0
 outer loop
vertex 10 0 0
vertex 1.667335033416748 7.668346405029297 0
vertex 1.6918140649795532 7.833370685577393 0
 endloop
endfacet
facet normal 0 0 0
 outer loop
vertex 1.667335033416748 8.331653594970703 0
vertex 1.6267986297607422 8.493483543395996 0
vertex 10 0 0
 endloop
endfacet
facet normal 0 0 0
 outer loop
vertex 10 0 0
vertex 1.6918140649795532 7.833370685577393 0
vertex 1.7000000476837158 8 0
 endloop
endfacet
facet normal 0 0 0
 outer loop
vertex 1.6918140649795532 8.16662883758545 0
vertex 1.667335033416748 8.331653594970703 0
vertex 10 0 0
 endloop
endfacet
facet normal 0 0 0
 outer loop
vertex 10 0 0
vertex 1.7000000476837158 8 0
vertex 1.6918140649795532 8.16662883758545 0
 endloop
endfacet
facet normal 0 0 0
 outer loop
vertex -10 0 3
vertex -1.7000000476837158 8 3
vertex -1.6918140649795532 8.16662883758545 3
 endloop
endfacet
facet normal 0 0 0
 outer loop
vertex -1.6918140649795532 7.833370685577393 3
vertex -1.7000000476837158 8 3
vertex -10 0 3
 endloop
endfacet
facet normal 0 0 0
 outer loop
vertex -10 16 3
vertex -10 0 3
vertex -1.6918140649795532 8.16662883758545 3
 endloop
endfacet
facet normal 0 0 0
 outer loop
vertex -1.667335033416748 7.668346405029297 3
vertex -1.6918140649795532 7.833370685577393 3
vertex -10 0 3
 endloop
endfacet
facet normal 0 0 0
 outer loop
vertex -10 16 3
vertex -1.6918140649795532 8.16662883758545 3
vertex -1.667335033416748 8.331653594970703 3
 endloop
endfacet
facet normal 0 0 0
 outer loop
vertex -1.6267986297607422 7.506515979766846 3
vertex -1.667335033416748 7.668346405029297 3
vertex -10 0 3
 endloop
endfacet
facet normal 0 0 0
 outer loop
vertex -10 16 3
vertex -1.667335033416748 8.331653594970703 3
vertex -1.6267986297607422 8.493483543395996 3
 endloop
endfacet
facet normal 0 0 0
 outer loop
vertex -1.5705952644348145 7.349438190460205 3
vertex -1.6267986297607422 7.506515979766846 3
vertex -10 0 3
 endloop
endfacet
facet normal 0 0 0
 outer loop
vertex -10 16 3
vertex -1.6267986297607422 8.493483543395996 3
vertex -1.5705952644348145 8.650562286376953 3
 endloop
endfacet
facet normal 0 0 0
 outer loop
vertex -1.4992661476135254 7.198625564575195 3
vertex -1.5705952644348145 7.349438190460205 3
vertex -10 0 3
 endloop
endfacet
facet normal 0 0 0
 outer loop
vertex -10 16 3
vertex -1.5705952644348145 8.650562286376953 3
vertex -1.4992661476135254 8.801374435424805 3
 endloop
endfacet
facet normal 0 0 0
 outer loop
vertex -1.4134982824325562 7.055530548095703 3
vertex -1.4992661476135254 7.198625564575195 3
vertex -10 0 3
 endloop
endfacet
facet normal 0 0 0
 outer loop
vertex -10 16 3
vertex -1.4992661476135254 8.801374435424805 3
vertex -1.4134982824325562 8.944469451904297 3
 endloop
endfacet
facet normal 0 0 0
 outer loop
vertex -1.3141177892684937 6.9215312004089355 3
vertex -1.4134982824325562 7.055530548095703 3
vertex -10 0 3
 endloop
endfacet
facet normal 0 0 0
 outer loop
vertex -10 16 3
vertex -1.4134982824325562 8.944469451904297 3
vertex -1.3141177892684937 9.078468322753906 3
 endloop
endfacet
facet normal 0 0 0
 outer loop
vertex -1.202081561088562 6.797918319702148 3
vertex -1.3141177892684937 6.9215312004089355 3
vertex -10 0 3
 endloop
endfacet
facet normal 0 0 0
 outer loop
vertex -10 16 3
vertex -1.3141177892684937 9.078468322753906 3
vertex -1.202081561088562 9.202081680297852 3
 endloop
endfacet
facet normal 0 0 0
 outer loop
vertex -1.0784685611724854 6.685882091522217 3
vertex -1.202081561088562 6.797918319702148 3
vertex -10 0 3
 endloop
endfacet
facet normal 0 0 0
 outer loop
vertex -10 16 3
vertex -1.202081561088562 9.202081680297852 3
vertex -1.0784685611724854 9.314117431640625 3
 endloop
endfacet
facet normal 0 0 0
 outer loop
vertex -0.9444693922996521 6.586501598358154 3
vertex -1.0784685611724854 6.685882091522217 3
vertex -10 0 3
 endloop
endfacet
facet normal 0 0 0
 outer loop
vertex -10 16 3
vertex -1.0784685611724854 9.314117431640625 3
vertex -0.9444693922996521 9.413497924804688 3
 endloop
endfacet
facet normal 0 0 0
 outer loop
vertex -0.8013744354248047 6.500733852386475 3
vertex -0.9444693922996521 6.586501598358154 3
vertex -10 0 3
 endloop
endfacet
facet normal 0 0 0
 outer loop
vertex 10 16 3
vertex -10 16 3
vertex -0.9444693922996521 9.413497924804688 3
 endloop
endfacet
facet normal 0 0 0
 outer loop
vertex -0.6505618095397949 6.4294047355651855 3
vertex -0.8013744354248047 6.500733852386475 3
vertex -10 0 3
 endloop
endfacet
facet normal 0 0 0
 outer loop
vertex 10 16 3
vertex -0.9444693922996521 9.413497924804688 3
vertex -0.8013744354248047 9.499266624450684 3
 endloop
endfacet
facet normal 0 0 0
 outer loop
vertex -0.4934839606285095 6.373201370239258 3
vertex -0.6505618095397949 6.4294047355651855 3
vertex -10 0 3
 endloop
endfacet
facet normal 0 0 0
 outer loop
vertex 10 16 3
vertex -0.8013744354248047 9.499266624450684 3
vertex -0.6505618095397949 9.570594787597656 3
 endloop
endfacet
facet normal 0 0 0
 outer loop
vertex -0.33165353536605835 6.332664966583252 3
vertex -0.4934839606285095 6.373201370239258 3
vertex -10 0 3
 endloop
endfacet
facet normal 0 0 0
 outer loop
vertex 10 16 3
vertex -0.6505618095397949 9.570594787597656 3
vertex -0.4934839606285095 9.626798629760742 3
 endloop
endfacet
facet normal 0 0 0
 outer loop
vertex -0.1666291356086731 6.308186054229736 3
vertex -0.33165353536605835 6.332664966583252 3
vertex -10 0 3
 endloop
endfacet
facet normal 0 0 0
 outer loop
vertex 10 16 3
vertex -0.4934839606285095 9.626798629760742 3
vertex -0.33165353536605835 9.66733455657959 3
 endloop
endfacet
facet normal 0 0 0
 outer loop
vertex 1.0409497585229437e-16 6.300000190734863 3
vertex -0.1666291356086731 6.308186054229736 3
vertex -10 0 3
 endloop
endfacet
facet normal 0 0 0
 outer loop
vertex 10 16 3
vertex -0.33165353536605835 9.66733455657959 3
vertex -0.1666291356086731 9.691814422607422 3
 endloop
endfacet
facet normal 0 0 0
 outer loop
vertex 0.1666291356086731 6.308186054229736 3
vertex 1.0409497585229437e-16 6.300000190734863 3
vertex -10 0 3
 endloop
endfacet
facet normal 0 0 0
 outer loop
vertex 10 16 3
vertex -0.1666291356086731 9.691814422607422 3
vertex -3.122849275568831e-16 9.699999809265137 3
 endloop
endfacet
facet normal 0 0 0
 outer loop
vertex 0.33165353536605835 6.332664966583252 3
vertex 0.1666291356086731 6.308186054229736 3
vertex -10 0 3
 endloop
endfacet
facet normal 0 0 0
 outer loop
vertex 10 16 3
vertex -3.122849275568831e-16 9.699999809265137 3
vertex 0.1666291356086731 9.691814422607422 3
 endloop
endfacet
facet normal 0 0 0
 outer loop
vertex 0.4934839606285095 6.373201370239258 3
vertex 0.33165353536605835 6.332664966583252 3
vertex -10 0 3
 endloop
endfacet
facet normal 0 0 0
 outer loop
vertex 10 16 3
vertex 0.1666291356086731 9.691814422607422 3
vertex 0.33165353536605835 9.66733455657959 3
 endloop
endfacet
facet normal 0 0 0
 outer loop
vertex 0.6505618095397949 6.4294047355651855 3
vertex 0.4934839606285095 6.373201370239258 3
vertex -10 0 3
 endloop
endfacet
facet normal 0 0 0
 outer loop
vertex 10 16 3
vertex 0.33165353536605835 9.66733455657959 3
vertex 0.4934839606285095 9.626798629760742 3
 endloop
endfacet
facet normal 0 0 0
 outer loop
vertex 0.8013744354248047 6.500733852386475 3
vertex 0.6505618095397949 6.4294047355651855 3
vertex -10 0 3
 endloop
endfacet
facet normal 0 0 0
 outer loop
vertex 10 16 3
vertex 0.4934839606285095 9.626798629760742 3
vertex 0.6505618095397949 9.570594787597656 3
 endloop
endfacet
facet normal 0 0 0
 outer loop
vertex 0.9444693922996521 6.586501598358154 3
vertex 0.8013744354248047 6.500733852386475 3
vertex -10 0 3
 endloop
endfacet
facet normal 0 0 0
 outer loop
vertex 10 16 3
vertex 0.6505618095397949 9.570594787597656 3
vertex 0.8013744354248047 9.499266624450684 3
 endloop
endfacet
facet normal 0 0 0
 outer loop
vertex 0.9444693922996521 6.586501598358154 3
vertex -10 0 3
vertex 10 0 3
 endloop
endfacet
facet normal 0 0 0
 outer loop
vertex 10 16 3
vertex 0.8013744354248047 9.499266624450684 3
vertex 0.9444693922996521 9.413497924804688 3
 endloop
endfacet
facet normal 0 0 0
 outer loop
vertex 1.0784685611724854 6.685882091522217 3
vertex 0.9444693922996521 6.586501598358154 3
vertex 10 0 3
 endloop
endfacet
facet normal 0 0 0
 outer loop
vertex 10 16 3
vertex 0.9444693922996521 9.413497924804688 3
vertex 1.0784685611724854 9.314117431640625 3
 endloop
endfacet
facet normal 0 0 0
 outer loop
vertex 1.202081561088562 6.797918319702148 3
vertex 1.0784685611724854 6.685882091522217 3
vertex 10 0 3
 endloop
endfacet
facet normal 0 0 0
 outer loop
vertex 10 16 3
vertex 1.0784685611724854 9.314117431640625 3
vertex 1.202081561088562 9.202081680297852 3
 endloop
endfacet
facet normal 0 0 0
 outer loop
vertex 1.3141177892684937 6.9215312004089355 3
vertex 1.202081561088562 6.797918319702148 3
vertex 10 0 3
 endloop
endfacet
facet normal 0 0 0
 outer loop
vertex 10 0 3
vertex 10 16 3
vertex 1.202081561088562 9.202081680297852 3
 endloop
endfacet
facet normal 0 0 0
 outer loop
vertex 1.4134982824325562 7.055530548095703 3
vertex 1.3141177892684937 6.9215312004089355 3
vertex 10 0 3
 endloop
endfacet
facet normal 0 0 0
 outer loop
vertex 10 0 3
vertex 1.202081561088562 9.202081680297852 3
vertex 1.3141177892684937 9.078468322753906 3
 endloop
endfacet
facet normal 0 0 0
 outer loop
vertex 1.4992661476135254 7.198625564575195 3
vertex 1.4134982824325562 7.055530548095703 3
vertex 10 0 3
 endloop
endfacet
facet normal 0 0 0
 outer loop
vertex 10 0 3
vertex 1.3141177892684937 9.078468322753906 3
vertex 1.4134982824325562 8.944469451904297 3
 endloop
endfacet
facet normal 0 0 0
 outer loop
vertex 1.5705952644348145 7.349438190460205 3
vertex 1.4992661476135254 7.198625564575195 3
vertex 10 0 3
 endloop
endfacet
facet normal 0 0 0
 outer loop
vertex 10 0 3
vertex 1.4134982824325562 8.944469451904297 3
vertex 1.4992661476135254 8.801374435424805 3
 endloop
endfacet
facet normal 0 0 0
 outer loop
vertex 1.6267986297607422 7.506515979766846 3
vertex 1.5705952644348145 7.349438190460205 3
vertex 10 0 3
 endloop
endfacet
facet normal 0 0 0
 outer loop
vertex 10 0 3
vertex 1.4992661476135254 8.801374435424805 3
vertex 1.5705952644348145 8.650562286376953 3
 endloop
endfacet
facet normal 0 0 0
 outer loop
vertex 1.667335033416748 7.668346405029297 3
vertex 1.6267986297607422 7.506515979766846 3
vertex 10 0 3
 endloop
endfacet
facet normal 0 0 0
 outer loop
vertex 10 0 3
vertex 1.5705952644348145 8.650562286376953 3
vertex 1.6267986297607422 8.493483543395996 3
 endloop
endfacet
facet normal 0 0 0
 outer loop
vertex 1.6918140649795532 7.833370685577393 3
vertex 1.667335033416748 7.668346405029297 3
vertex 10 0 3
 endloop
endfacet
facet normal 0 0 0
 outer loop
vertex 10 0 3
vertex 1.6267986297607422 8.493483543395996 3
vertex 1.667335033416748 8.331653594970703 3
 endloop
endfacet
facet normal 0 0 0
 outer loop
vertex 1.7000000476837158 8 3
vertex 1.6918140649795532 7.833370685577393 3
vertex 10 0 3
 endloop
endfacet
facet normal 0 0 0
 outer loop
vertex 10 0 3
vertex 1.667335033416748 8.331653594970703 3
vertex 1.6918140649795532 8.16662883758545 3
 endloop
endfacet
facet normal 0 0 0
 outer loop
vertex 1.6918140649795532 8.16662883758545 3
vertex 1.7000000476837158 8 3
vertex 10 0 3
 endloop
endfacet
facet normal 0 0 0
 outer loop
vertex -10 0 0
vertex 10 0 0
vertex -10 0 3
 endloop
endfacet
facet normal 0 0 0
 outer loop
vertex 10 0 0
vertex 10 0 3
vertex -10 0 3
 endloop
endfacet
facet normal 0 0 0
 outer loop
vertex 10 0 0
vertex 10 16 0
vertex 10 0 3
 endloop
endfacet
facet normal 0 0 0
 outer loop
vertex 10 16 0
vertex 10 16 3
vertex 10 0 3
 endloop
endfacet
facet normal 0 0 0
 outer loop
vertex 10 16 0
vertex -10 16 0
vertex 10 16 3
 endloop
endfacet
facet normal 0 0 0
 outer loop
vertex -10 16 0
vertex -10 16 3
vertex 10 16 3
 endloop
endfacet
facet normal 0 0 0
 outer loop
vertex -10 16 0
vertex -10 0 0
vertex -10 16 3
 endloop
endfacet
facet normal 0 0 0
 outer loop
vertex -10 0 0
vertex -10 0 3
vertex -10 16 3
 endloop
endfacet
facet normal 0 0 0
 outer loop
vertex 1.7000000476837158 8 0
vertex 1.6918140649795532 7.833370685577393 0
vertex 1.7000000476837158 8 3
 endloop
endfacet
facet normal 0 0 0
 outer loop
vertex 1.6918140649795532 7.833370685577393 0
vertex 1.6918140649795532 7.833370685577393 3
vertex 1.7000000476837158 8 3
 endloop
endfacet
facet normal 0 0 0
 outer loop
vertex 1.6918140649795532 7.833370685577393 0
vertex 1.667335033416748 7.668346405029297 0
vertex 1.6918140649795532 7.833370685577393 3
 endloop
endfacet
facet normal 0 0 0
 outer loop
vertex 1.667335033416748 7.668346405029297 0
vertex 1.667335033416748 7.668346405029297 3
vertex 1.6918140649795532 7.833370685577393 3
 endloop
endfacet
facet normal 0 0 0
 outer loop
vertex 1.667335033416748 7.668346405029297 0
vertex 1.6267986297607422 7.506515979766846 0
vertex 1.667335033416748 7.668346405029297 3
 endloop
endfacet
facet normal 0 0 0
 outer loop
vertex 1.6267986297607422 7.506515979766846 0
vertex 1.6267986297607422 7.506515979766846 3
vertex 1.667335033416748 7.668346405029297 3
 endloop
endfacet
facet normal 0 0 0
 outer loop
vertex 1.6267986297607422 7.506515979766846 0
vertex 1.5705952644348145 7.349438190460205 0
vertex 1.6267986297607422 7.506515979766846 3
 endloop
endfacet
facet normal 0 0 0
 outer loop
vertex 1.5705952644348145 7.349438190460205 0
vertex 1.5705952644348145 7.349438190460205 3
vertex 1.6267986297607422 7.506515979766846 3
 endloop
endfacet
facet normal 0 0 0
 outer loop
vertex 1.5705952644348145 7.349438190460205 0
vertex 1.4992661476135254 7.198625564575195 0
vertex 1.5705952644348145 7.349438190460205 3
 endloop
endfacet
facet normal 0 0 0
 outer loop
vertex 1.4992661476135254 7.198625564575195 0
vertex 1.4992661476135254 7.198625564575195 3
vertex 1.5705952644348145 7.349438190460205 3
 endloop
endfacet
facet normal 0 0 0
 outer loop
vertex 1.4992661476135254 7.198625564575195 0
vertex 1.4134982824325562 7.055530548095703 0
vertex 1.4992661476135254 7.198625564575195 3
 endloop
endfacet
facet normal 0 0 0
 outer loop
vertex 1.4134982824325562 7.055530548095703 0
vertex 1.4134982824325562 7.055530548095703 3
vertex 1.4992661476135254 7.198625564575195 3
 endloop
endfacet
facet normal 0 0 0
 outer loop
vertex 1.4134982824325562 7.055530548095703 0
vertex 1.3141177892684937 6.9215312004089355 0
vertex 1.4134982824325562 7.055530548095703 3
 endloop
endfacet
facet normal 0 0 0
 outer loop
vertex 1.3141177892684937 6.9215312004089355 0
vertex 1.3141177892684937 6.9215312004089355 3
vertex 1.4134982824325562 7.055530548095703 3
 endloop
endfacet
facet normal 0 0 0
 outer loop
vertex 1.3141177892684937 6.9215312004089355 0
vertex 1.202081561088562 6.797918319702148 0
vertex 1.3141177892684937 6.9215312004089355 3
 endloop
endfacet
facet normal 0 0 0
 outer loop
vertex 1.202081561088562 6.797918319702148 0
vertex 1.202081561088562 6.797918319702148 3
vertex 1.3141177892684937 6.9215312004089355 3
 endloop
endfacet
facet normal 0 0 0
 outer loop
vertex 1.202081561088562 6.797918319702148 0
vertex 1.0784685611724854 6.685882091522217 0
vertex 1.202081561088562 6.797918319702148 3
 endloop
endfacet
facet normal 0 0 0
 outer loop
vertex 1.0784685611724854 6.685882091522217 0
vertex 1.0784685611724854 6.685882091522217 3
vertex 1.202081561088562 6.797918319702148 3
 endloop
endfacet
facet normal 0 0 0
 outer loop
vertex 1.0784685611724854 6.685882091522217 0
vertex 0.9444693922996521 6.586501598358154 0
vertex 1.0784685611724854 6.685882091522217 3
 endloop
endfacet
facet normal 0 0 0
 outer loop
vertex 0.9444693922996521 6.586501598358154 0
vertex 0.9444693922996521 6.586501598358154 3
vertex 1.0784685611724854 6.685882091522217 3
 endloop
endfacet
facet normal 0 0 0
 outer loop
vertex 0.9444693922996521 6.586501598358154 0
vertex 0.8013744354248047 6.500733852386475 0
vertex 0.9444693922996521 6.586501598358154 3
 endloop
endfacet
facet normal 0 0 0
 outer loop
vertex 0.8013744354248047 6.500733852386475 0
vertex 0.8013744354248047 6.500733852386475 3
vertex 0.9444693922996521 6.586501598358154 3
 endloop
endfacet
facet normal 0 0 0
 outer loop
vertex 0.8013744354248047 6.500733852386475 0
vertex 0.6505618095397949 6.4294047355651855 0
vertex 0.8013744354248047 6.500733852386475 3
 endloop
endfacet
facet normal 0 0 0
 outer loop
vertex 0.6505618095397949 6.4294047355651855 0
vertex 0.6505618095397949 6.4294047355651855 3
vertex 0.8013744354248047 6.500733852386475 3
 endloop
endfacet
facet normal 0 0 0
 outer loop
vertex 0.6505618095397949 6.4294047355651855 0
vertex 0.4934839606285095 6.373201370239258 0
vertex 0.6505618095397949 6.4294047355651855 3
 endloop
endfacet
facet normal 0 0 0
 outer loop
vertex 0.4934839606285095 6.373201370239258 0
vertex 0.4934839606285095 6.373201370239258 3
vertex 0.6505618095397949 6.4294047355651855 3
 endloop
endfacet
facet normal 0 0 0
 outer loop
vertex 0.4934839606285095 6.373201370239258 0
vertex 0.33165353536605835 6.332664966583252 0
vertex 0.4934839606285095 6.373201370239258 3
 endloop
endfacet
facet normal 0 0 0
 outer loop
vertex 0.33165353536605835 6.332664966583252 0
vertex 0.33165353536605835 6.332664966583252 3
vertex 0.4934839606285095 6.373201370239258 3
 endloop
endfacet
facet normal 0 0 0
 outer loop
vertex 0.33165353536605835 6.332664966583252 0
vertex 0.1666291356086731 6.308186054229736 0
vertex 0.33165353536605835 6.332664966583252 3
 endloop
endfacet
facet normal 0 0 0
 outer loop
vertex 0.1666291356086731 6.308186054229736 0
vertex 0.1666291356086731 6.308186054229736 3
vertex 0.33165353536605835 6.332664966583252 3
 endloop
endfacet
facet normal 0 0 0
 outer loop
vertex 0.1666291356086731 6.308186054229736 0
vertex 1.0409497585229437e-16 6.300000190734863 0
vertex 0.1666291356086731 6.308186054229736 3
 endloop
endfacet
facet normal 0 0 0
 outer loop
vertex 1.0409497585229437e-16 6.300000190734863 0
vertex 1.0409497585229437e-16 6.300000190734863 3
vertex 0.1666291356086731 6.308186054229736 3
 endloop
endfacet
facet normal 0 0 0
 outer loop
vertex 1.0409497585229437e-16 6.300000190734863 0
vertex -0.1666291356086731 6.308186054229736 0
vertex 1.0409497585229437e-16 6.300000190734863 3
 endloop
endfacet
facet normal 0 0 0
 outer loop
vertex -0.1666291356086731 6.308186054229736 0
vertex -0.1666291356086731 6.308186054229736 3
vertex 1.0409497585229437e-16 6.300000190734863 3
 endloop
endfacet
facet normal 0 0 0
 outer loop
vertex -0.1666291356086731 6.308186054229736 0
vertex -0.33165353536605835 6.332664966583252 0
vertex -0.1666291356086731 6.308186054229736 3
 endloop
endfacet
facet normal 0 0 0
 outer loop
vertex -0.33165353536605835 6.332664966583252 0
vertex -0.33165353536605835 6.332664966583252 3
vertex -0.1666291356086731 6.308186054229736 3
 endloop
endfacet
facet normal 0 0 0
 outer loop
vertex -0.33165353536605835 6.332664966583252 0
vertex -0.4934839606285095 6.373201370239258 0
vertex -0.33165353536605835 6.332664966583252 3
 endloop
endfacet
facet normal 0 0 0
 outer loop
vertex -0.4934839606285095 6.373201370239258 0
vertex -0.4934839606285095 6.373201370239258 3
vertex -0.33165353536605835 6.332664966583252 3
 endloop
endfacet
facet normal 0 0 0
 outer loop
vertex -0.4934839606285095 6.373201370239258 0
vertex -0.6505618095397949 6.4294047355651855 0
vertex -0.4934839606285095 6.373201370239258 3
 endloop
endfacet
facet normal 0 0 0
 outer loop
vertex -0.6505618095397949 6.4294047355651855 0
vertex -0.6505618095397949 6.4294047355651855 3
vertex -0.4934839606285095 6.373201370239258 3
 endloop
endfacet
facet normal 0 0 0
 outer loop
vertex -0.6505618095397949 6.4294047355651855 0
vertex -0.8013744354248047 6.500733852386475 0
vertex -0.6505618095397949 6.4294047355651855 3
 endloop
endfacet
facet normal 0 0 0
 outer loop
vertex -0.8013744354248047 6.500733852386475 0
vertex -0.8013744354248047 6.500733852386475 3
vertex -0.6505618095397949 6.4294047355651855 3
 endloop
endfacet
facet normal 0 0 0
 outer loop
vertex -0.8013744354248047 6.500733852386475 0
vertex -0.9444693922996521 6.586501598358154 0
vertex -0.8013744354248047 6.500733852386475 3
 endloop
endfacet
facet normal 0 0 0
 outer loop
vertex -0.9444693922996521 6.586501598358154 0
vertex -0.9444693922996521 6.586501598358154 3
vertex -0.8013744354248047 6.500733852386475 3
 endloop
endfacet
facet normal 0 0 0
 outer loop
vertex -0.9444693922996521 6.586501598358154 0
vertex -1.0784685611724854 6.685882091522217 0
vertex -0.9444693922996521 6.586501598358154 3
 endloop
endfacet
facet normal 0 0 0
 outer loop
vertex -1.0784685611724854 6.685882091522217 0
vertex -1.0784685611724854 6.685882091522217 3
vertex -0.9444693922996521 6.586501598358154 3
 endloop
endfacet
facet normal 0 0 0
 outer loop
vertex -1.0784685611724854 6.685882091522217 0
vertex -1.202081561088562 6.797918319702148 0
vertex -1.0784685611724854 6.685882091522217 3
 endloop
endfacet
facet normal 0 0 0
 outer loop
vertex -1.202081561088562 6.797918319702148 0
vertex -1.202081561088562 6.797918319702148 3
vertex -1.0784685611724854 6.685882091522217 3
 endloop
endfacet
facet normal 0 0 0
 outer loop
vertex -1.202081561088562 6.797918319702148 0
vertex -1.3141177892684937 6.9215312004089355 0
vertex -1.202081561088562 6.797918319702148 3
 endloop
endfacet
facet normal 0 0 0
 outer loop
vertex -1.3141177892684937 6.9215312004089355 0
vertex -1.3141177892684937 6.9215312004089355 3
vertex -1.202081561088562 6.797918319702148 3
 endloop
endfacet
facet normal 0 0 0
 outer loop
vertex -1.3141177892684937 6.9215312004089355 0
vertex -1.4134982824325562 7.055530548095703 0
vertex -1.3141177892684937 6.9215312004089355 3
 endloop
endfacet
facet normal 0 0 0
 outer loop
vertex -1.4134982824325562 7.055530548095703 0
vertex -1.4134982824325562 7.055530548095703 3
vertex -1.3141177892684937 6.9215312004089355 3
 endloop
endfacet
facet normal 0 0 0
 outer loop
vertex -1.4134982824325562 7.055530548095703 0
vertex -1.4992661476135254 7.198625564575195 0
vertex -1.4134982824325562 7.055530548095703 3
 endloop
endfacet
facet normal 0 0 0
 outer loop
vertex -1.4992661476135254 7.198625564575195 0
vertex -1.4992661476135254 7.198625564575195 3
vertex -1.4134982824325562 7.055530548095703 3
 endloop
endfacet
facet normal 0 0 0
 outer loop
vertex -1.4992661476135254 7.198625564575195 0
vertex -1.5705952644348145 7.349438190460205 0
vertex -1.4992661476135254 7.198625564575195 3
 endloop
endfacet
facet normal 0 0 0
 outer loop
vertex -1.5705952644348145 7.349438190460205 0
vertex -1.5705952644348145 7.349438190460205 3
vertex -1.4992661476135254 7.198625564575195 3
 endloop
endfacet
facet normal 0 0 0
 outer loop
vertex -1.5705952644348145 7.349438190460205 0
vertex -1.6267986297607422 7.506515979766846 0
vertex -1.5705952644348145 7.349438190460205 3
 endloop
endfacet
facet normal 0 0 0
 outer loop
vertex -1.6267986297607422 7.506515979766846 0
vertex -1.6267986297607422 7.506515979766846 3
vertex -1.5705952644348145 7.349438190460205 3
 endloop
endfacet
facet normal 0 0 0
 outer loop
vertex -1.6267986297607422 7.506515979766846 0
vertex -1.667335033416748 7.668346405029297 0
vertex -1.6267986297607422 7.506515979766846 3
 endloop
endfacet
facet normal 0 0 0
 outer loop
vertex -1.667335033416748 7.668346405029297 0
vertex -1.667335033416748 7.668346405029297 3
vertex -1.6267986297607422 7.506515979766846 3
 endloop
endfacet
facet normal 0 0 0
 outer loop
vertex -1.667335033416748 7.668346405029297 0
vertex -1.6918140649795532 7.833370685577393 0
vertex -1.667335033416748 7.668346405029297 3
 endloop
endfacet
facet normal 0 0 0
 outer loop
vertex -1.6918140649795532 7.833370685577393 0
vertex -1.6918140649795532 7.833370685577393 3
vertex -1.667335033416748 7.668346405029297 3
 endloop
endfacet
facet normal 0 0 0
 outer loop
vertex -1.6918140649795532 7.833370685577393 0
vertex -1.7000000476837158 8 0
vertex -1.6918140649795532 7.833370685577393 3
 endloop
endfacet
facet normal 0 0 0
 outer loop
vertex -1.7000000476837158 8 0
vertex -1.7000000476837158 8 3
vertex -1.6918140649795532 7.833370685577393 3
 endloop
endfacet
facet normal 0 0 0
 outer loop
vertex -1.7000000476837158 8 0
vertex -1.6918140649795532 8.16662883758545 0
vertex -1.7000000476837158 8 3
 endloop
endfacet
facet normal 0 0 0
 outer loop
vertex -1.6918140649795532 8.16662883758545 0
vertex -1.6918140649795532 8.16662883758545 3
vertex -1.7000000476837158 8 3
 endloop
endfacet
facet normal 0 0 0
 outer loop
vertex -1.6918140649795532 8.16662883758545 0
vertex -1.667335033416748 8.331653594970703 0
vertex -1.6918140649795532 8.16662883758545 3
 endloop
endfacet
facet normal 0 0 0
 outer loop
vertex -1.667335033416748 8.331653594970703 0
vertex -1.667335033416748 8.331653594970703 3
vertex -1.6918140649795532 8.16662883758545 3
 endloop
endfacet
facet normal 0 0 0
 outer loop
vertex -1.667335033416748 8.331653594970703 0
vertex -1.6267986297607422 8.493483543395996 0
vertex -1.667335033416748 8.331653594970703 3
 endloop
endfacet
facet normal 0 0 0
 outer loop
vertex -1.6267986297607422 8.493483543395996 0
vertex -1.6267986297607422 8.493483543395996 3
vertex -1.667335033416748 8.331653594970703 3
 endloop
endfacet
facet normal 0 0 0
 outer loop
vertex -1.6267986297607422 8.493483543395996 0
vertex -1.5705952644348145 8.650562286376953 0
vertex -1.6267986297607422 8.493483543395996 3
 endloop
endfacet
facet normal 0 0 0
 outer loop
vertex -1.5705952644348145 8.650562286376953 0
vertex -1.5705952644348145 8.650562286376953 3
vertex -1.6267986297607422 8.493483543395996 3
 endloop
endfacet
facet normal 0 0 0
 outer loop
vertex -1.5705952644348145 8.650562286376953 0
vertex -1.4992661476135254 8.801374435424805 0
vertex -1.5705952644348145 8.650562286376953 3
 endloop
endfacet
facet normal 0 0 0
 outer loop
vertex -1.4992661476135254 8.801374435424805 0
vertex -1.4992661476135254 8.801374435424805 3
vertex -1.5705952644348145 8.650562286376953 3
 endloop
endfacet
facet normal 0 0 0
 outer loop
vertex -1.4992661476135254 8.801374435424805 0
vertex -1.4134982824325562 8.944469451904297 0
vertex -1.4992661476135254 8.801374435424805 3
 endloop
endfacet
facet normal 0 0 0
 outer loop
vertex -1.4134982824325562 8.944469451904297 0
vertex -1.4134982824325562 8.944469451904297 3
vertex -1.4992661476135254 8.801374435424805 3
 endloop
endfacet
facet normal 0 0 0
 outer loop
vertex -1.4134982824325562 8.944469451904297 0
vertex -1.3141177892684937 9.078468322753906 0
vertex -1.4134982824325562 8.944469451904297 3
 endloop
endfacet
facet normal 0 0 0
 outer loop
vertex -1.3141177892684937 9.078468322753906 0
vertex -1.3141177892684937 9.078468322753906 3
vertex -1.4134982824325562 8.944469451904297 3
 endloop
endfacet
facet normal 0 0 0
 outer loop
vertex -1.3141177892684937 9.078468322753906 0
vertex -1.202081561088562 9.202081680297852 0
vertex -1.3141177892684937 9.078468322753906 3
 endloop
endfacet
facet normal 0 0 0
 outer loop
vertex -1.202081561088562 9.202081680297852 0
vertex -1.202081561088562 9.202081680297852 3
vertex -1.3141177892684937 9.078468322753906 3
 endloop
endfacet
facet normal 0 0 0
 outer loop
vertex -1.202081561088562 9.202081680297852 0
vertex -1.0784685611724854 9.314117431640625 0
vertex -1.202081561088562 9.202081680297852 3
 endloop
endfacet
facet normal 0 0 0
 outer loop
vertex -1.0784685611724854 9.314117431640625 0
vertex -1.0784685611724854 9.314117431640625 3
vertex -1.202081561088562 9.202081680297852 3
 endloop
endfacet
facet normal 0 0 0
 outer loop
vertex -1.0784685611724854 9.314117431640625 0
vertex -0.9444693922996521 9.413497924804688 0
vertex -1.0784685611724854 9.314117431640625 3
 endloop
endfacet
facet normal 0 0 0
 outer loop
vertex -0.9444693922996521 9.413497924804688 0
vertex -0.9444693922996521 9.413497924804688 3
vertex -1.0784685611724854 9.314117431640625 3
 endloop
endfacet
facet normal 0 0 0
 outer loop
vertex -0.9444693922996521 9.413497924804688 0
vertex -0.8013744354248047 9.499266624450684 0
vertex -0.9444693922996521 9.413497924804688 3
 endloop
endfacet
facet normal 0 0 0
 outer loop
vertex -0.8013744354248047 9.499266624450684 0
vertex -0.8013744354248047 9.499266624450684 3
vertex -0.9444693922996521 9.413497924804688 3
 endloop
endfacet
facet normal 0 0 0
 outer loop
vertex -0.8013744354248047 9.499266624450684 0
vertex -0.6505618095397949 9.570594787597656 0
vertex -0.8013744354248047 9.499266624450684 3
 endloop
endfacet
facet normal 0 0 0
 outer loop
vertex -0.6505618095397949 9.570594787597656 0
vertex -0.6505618095397949 9.570594787597656 3
vertex -0.8013744354248047 9.499266624450684 3
 endloop
endfacet
facet normal 0 0 0
 outer loop
vertex -0.6505618095397949 9.570594787597656 0
vertex -0.4934839606285095 9.626798629760742 0
vertex -0.6505618095397949 9.570594787597656 3
 endloop
endfacet
facet normal 0 0 0
 outer loop
vertex -0.4934839606285095 9.626798629760742 0
vertex -0.4934839606285095 9.626798629760742 3
vertex -0.6505618095397949 9.570594787597656 3
 endloop
endfacet
facet normal 0 0 0
 outer loop
vertex -0.4934839606285095 9.626798629760742 0
vertex -0.33165353536605835 9.66733455657959 0
vertex -0.4934839606285095 9.626798629760742 3
 endloop
endfacet
facet normal 0 0 0
 outer loop
vertex -0.33165353536605835 9.66733455657959 0
vertex -0.33165353536605835 9.66733455657959 3
vertex -0.4934839606285095 9.626798629760742 3
 endloop
endfacet
facet normal 0 0 0
 outer loop
vertex -0.33165353536605835 9.66733455657959 0
vertex -0.1666291356086731 9.691814422607422 0
vertex -0.33165353536605835 9.66733455657959 3
 endloop
endfacet
facet normal 0 0 0
 outer loop
vertex -0.1666291356086731 9.691814422607422 0
vertex -0.1666291356086731 9.691814422607422 3
vertex -0.33165353536605835 9.66733455657959 3
 endloop
endfacet
facet normal 0 0 0
 outer loop
vertex -0.1666291356086731 9.691814422607422 0
vertex -3.122849275568831e-16 9.699999809265137 0
vertex -0.1666291356086731 9.691814422607422 3
 endloop
endfacet
facet normal 0 0 0
 outer loop
vertex -3.122849275568831e-16 9.699999809265137 0
vertex -3.122849275568831e-16 9.699999809265137 3
vertex -0.1666291356086731 9.691814422607422 3
 endloop
endfacet
facet normal 0 0 0
 outer loop
vertex -3.122849275568831e-16 9.699999809265137 0
vertex 0.1666291356086731 9.691814422607422 0
vertex -3.122849275568831e-16 9.699999809265137 3
 endloop
endfacet
facet normal 0 0 0
 outer loop
vertex 0.1666291356086731 9.691814422607422 0
vertex 0.1666291356086731 9.691814422607422 3
vertex -3.122849275568831e-16 9.699999809265137 3
 endloop
endfacet
facet normal 0 0 0
 outer loop
vertex 0.1666291356086731 9.691814422607422 0
vertex 0.33165353536605835 9.66733455657959 0
vertex 0.1666291356086731 9.691814422607422 3
 endloop
endfacet
facet normal 0 0 0
 outer loop
vertex 0.33165353536605835 9.66733455657959 0
vertex 0.33165353536605835 9.66733455657959 3
vertex 0.1666291356086731 9.691814422607422 3
 endloop
endfacet
facet normal 0 0 0
 outer loop
vertex 0.33165353536605835 9.66733455657959 0
vertex 0.4934839606285095 9.626798629760742 0
vertex 0.33165353536605835 9.66733455657959 3
 endloop
endfacet
facet normal 0 0 0
 outer loop
vertex 0.4934839606285095 9.626798629760742 0
vertex 0.4934839606285095 9.626798629760742 3
vertex 0.33165353536605835 9.66733455657959 3
 endloop
endfacet
facet normal 0 0 0
 outer loop
vertex 0.4934839606285095 9.626798629760742 0
vertex 0.6505618095397949 9.570594787597656 0
vertex 0.4934839606285095 9.626798629760742 3
 endloop
endfacet
facet normal 0 0 0
 outer loop
vertex 0.6505618095397949 9.570594787597656 0
vertex 0.6505618095397949 9.570594787597656 3
vertex 0.4934839606285095 9.626798629760742 3
 endloop
endfacet
facet normal 0 0 0
 outer loop
vertex 0.6505618095397949 9.570594787597656 0
vertex 0.8013744354248047 9.499266624450684 0
vertex 0.6505618095397949 9.570594787597656 3
 endloop
endfacet
facet normal 0 0 0
 outer loop
vertex 0.8013744354248047 9.499266624450684 0
vertex 0.8013744354248047 9.499266624450684 3
vertex 0.6505618095397949 9.570594787597656 3
 endloop
endfacet
facet normal 0 0 0
 outer loop
vertex 0.8013744354248047 9.499266624450684 0
vertex 0.9444693922996521 9.413497924804688 0
vertex 0.8013744354248047 9.499266624450684 3
 endloop
endfacet
facet normal 0 0 0
 outer loop
vertex 0.9444693922996521 9.413497924804688 0
vertex 0.9444693922996521 9.413497924804688 3
vertex 0.8013744354248047 9.499266624450684 3
 endloop
endfacet
facet normal 0 0 0
 outer loop
vertex 0.9444693922996521 9.413497924804688 0
vertex 1.0784685611724854 9.314117431640625 0
vertex 0.9444693922996521 9.413497924804688 3
 endloop
endfacet
facet normal 0 0 0
 outer loop
vertex 1.0784685611724854 9.314117431640625 0
vertex 1.0784685611724854 9.314117431640625 3
vertex 0.9444693922996521 9.413497924804688 3
 endloop
endfacet
facet normal 0 0 0
 outer loop
vertex 1.0784685611724854 9.314117431640625 0
vertex 1.202081561088562 9.202081680297852 0
vertex 1.0784685611724854 9.314117431640625 3
 endloop
endfacet
facet normal 0 0 0
 outer loop
vertex 1.202081561088562 9.202081680297852 0
vertex 1.202081561088562 9.202081680297852 3
vertex 1.0784685611724854 9.314117431640625 3
 endloop
endfacet
facet normal 0 0 0
 outer loop
vertex 1.202081561088562 9.202081680297852 0
vertex 1.3141177892684937 9.078468322753906 0
vertex 1.202081561088562 9.202081680297852 3
 endloop
endfacet
facet normal 0 0 0
 outer loop
vertex 1.3141177892684937 9.078468322753906 0
vertex 1.3141177892684937 9.078468322753906 3
vertex 1.202081561088562 9.202081680297852 3
 endloop
endfacet
facet normal 0 0 0
 outer loop
vertex 1.3141177892684937 9.078468322753906 0
vertex 1.4134982824325562 8.944469451904297 0
vertex 1.3141177892684937 9.078468322753906 3
 endloop
endfacet
facet normal 0 0 0
 outer loop
vertex 1.4134982824325562 8.944469451904297 0
vertex 1.4134982824325562 8.944469451904297 3
vertex 1.3141177892684937 9.078468322753906 3
 endloop
endfacet
facet normal 0 0 0
 outer loop
vertex 1.4134982824325562 8.944469451904297 0
vertex 1.4992661476135254 8.801374435424805 0
vertex 1.4134982824325562 8.944469451904297 3
 endloop
endfacet
facet normal 0 0 0
 outer loop
vertex 1.4992661476135254 8.801374435424805 0
vertex 1.4992661476135254 8.801374435424805 3
vertex 1.4134982824325562 8.944469451904297 3
 endloop
endfacet
facet normal 0 0 0
 outer loop
vertex 1.4992661476135254 8.801374435424805 0
vertex 1.5705952644348145 8.650562286376953 0
vertex 1.4992661476135254 8.801374435424805 3
 endloop
endfacet
facet normal 0 0 0
 outer loop
vertex 1.5705952644348145 8.650562286376953 0
vertex 1.5705952644348145 8.650562286376953 3
vertex 1.4992661476135254 8.801374435424805 3
 endloop
endfacet
facet normal 0 0 0
 outer loop
vertex 1.5705952644348145 8.650562286376953 0
vertex 1.6267986297607422 8.493483543395996 0
vertex 1.5705952644348145 8.650562286376953 3
 endloop
endfacet
facet normal 0 0 0
 outer loop
vertex 1.6267986297607422 8.493483543395996 0
vertex 1.6267986297607422 8.493483543395996 3
vertex 1.5705952644348145 8.650562286376953 3
 endloop
endfacet
facet normal 0 0 0
 outer loop
vertex 1.6267986297607422 8.493483543395996 0
vertex 1.667335033416748 8.331653594970703 0
vertex 1.6267986297607422 8.493483543395996 3
 endloop
endfacet
facet normal 0 0 0
 outer loop
vertex 1.667335033416748 8.331653594970703 0
vertex 1.667335033416748 8.331653594970703 3
vertex 1.6267986297607422 8.493483543395996 3
 endloop
endfacet
facet normal 0 0 0
 outer loop
vertex 1.667335033416748 8.331653594970703 0
vertex 1.6918140649795532 8.16662883758545 0
vertex 1.667335033416748 8.331653594970703 3
 endloop
endfacet
facet normal 0 0 0
 outer loop
vertex 1.6918140649795532 8.16662883758545 0
vertex 1.6918140649795532 8.16662883758545 3
vertex 1.667335033416748 8.331653594970703 3
 endloop
endfacet
facet normal 0 0 0
 outer loop
vertex 1.6918140649795532 8.16662883758545 0
vertex 1.7000000476837158 8 0
vertex 1.6918140649795532 8.16662883758545 3
 endloop
endfacet
facet normal 0 0 0
 outer loop
vertex 1.7000000476837158 8 0
vertex 1.7000000476837158 8 3
vertex 1.6918140649795532 8.16662883758545 3
 endloop
endfacet
endsolid systemedu
